<svg xmlns="http://www.w3.org/2000/svg" width="224.88" viewBox="0 0 224.88 225" height="225" version="1.0"><defs><clipPath id="a"><path d="M 108 67 L 200.835938 67 L 200.835938 167 L 108 167 Z M 108 67"/></clipPath><clipPath id="b"><path d="M 80 124 L 177 124 L 177 219.382812 L 80 219.382812 Z M 80 124"/></clipPath><clipPath id="c"><path d="M 89 169 L 148 169 L 148 219.382812 L 89 219.382812 Z M 89 169"/></clipPath><clipPath id="d"><path d="M 66 5.746094 L 80 5.746094 L 80 19 L 66 19 Z M 66 5.746094"/></clipPath></defs><path fill="#F9ED32" d="M 116.808594 35.207031 C 117.566406 35.207031 118.320312 35.132812 119.066406 34.984375 C 119.808594 34.835938 120.535156 34.617188 121.234375 34.324219 C 121.9375 34.035156 122.605469 33.675781 123.238281 33.253906 C 123.867188 32.832031 124.453125 32.351562 124.992188 31.8125 C 125.527344 31.277344 126.007812 30.691406 126.429688 30.058594 C 126.851562 29.425781 127.210938 28.757812 127.5 28.054688 C 127.792969 27.351562 128.011719 26.628906 128.160156 25.882812 C 128.308594 25.136719 128.382812 24.382812 128.382812 23.621094 C 128.386719 22.859375 128.3125 22.109375 128.164062 21.359375 C 128.015625 20.613281 127.796875 19.890625 127.507812 19.1875 C 127.214844 18.484375 126.859375 17.816406 126.4375 17.183594 C 126.015625 16.550781 125.539062 15.964844 125 15.425781 C 124.464844 14.886719 123.878906 14.40625 123.25 13.984375 C 122.617188 13.558594 121.953125 13.203125 121.25 12.910156 C 120.546875 12.617188 119.824219 12.398438 119.078125 12.25 C 118.335938 12.097656 117.582031 12.023438 116.820312 12.023438 C 116.0625 12.023438 115.308594 12.09375 114.5625 12.242188 C 113.820312 12.390625 113.09375 12.609375 112.390625 12.898438 C 111.691406 13.1875 111.023438 13.542969 110.390625 13.964844 C 109.757812 14.386719 109.171875 14.867188 108.632812 15.40625 C 108.09375 15.941406 107.613281 16.527344 107.191406 17.15625 C 106.769531 17.789062 106.410156 18.457031 106.117188 19.160156 C 105.828125 19.863281 105.605469 20.585938 105.457031 21.332031 C 105.308594 22.078125 105.230469 22.832031 105.230469 23.59375 C 105.230469 24.355469 105.304688 25.109375 105.453125 25.855469 C 105.601562 26.601562 105.820312 27.328125 106.109375 28.03125 C 106.402344 28.734375 106.757812 29.402344 107.179688 30.039062 C 107.601562 30.671875 108.082031 31.257812 108.621094 31.796875 C 109.15625 32.335938 109.742188 32.816406 110.375 33.242188 C 111.003906 33.664062 111.671875 34.023438 112.375 34.316406 C 113.078125 34.609375 113.800781 34.828125 114.546875 34.980469 C 115.292969 35.128906 116.046875 35.203125 116.808594 35.207031 Z M 116.808594 35.207031" fill-opacity=".776" fill-rule="evenodd"/><path fill="#662D91" d="M 172.890625 44.144531 C 176.035156 47.796875 178.636719 51.800781 180.691406 56.164062 C 182.746094 60.523438 184.183594 65.082031 185 69.832031 C 187.347656 83.574219 183.769531 96.296875 186.277344 104.847656 C 186.867188 106.765625 187.652344 108.597656 188.640625 110.34375 C 188.054688 110.683594 187.457031 111.007812 186.851562 111.316406 C 186.246094 111.625 185.632812 111.914062 185.011719 112.1875 C 184.390625 112.457031 183.761719 112.714844 183.125 112.949219 C 182.488281 113.1875 181.847656 113.402344 181.199219 113.601562 C 180.550781 113.800781 179.894531 113.984375 179.234375 114.144531 C 178.578125 114.304688 177.914062 114.449219 177.246094 114.574219 C 176.578125 114.695312 175.910156 114.800781 175.234375 114.886719 C 174.5625 114.972656 173.886719 115.039062 173.210938 115.085938 C 172.53125 115.128906 171.855469 115.15625 171.175781 115.164062 C 170.496094 115.171875 169.820312 115.160156 169.140625 115.128906 C 168.464844 115.097656 167.789062 115.046875 167.113281 114.976562 C 166.4375 114.90625 165.765625 114.816406 165.09375 114.707031 C 164.425781 114.597656 163.757812 114.472656 163.097656 114.324219 C 162.433594 114.175781 161.777344 114.011719 161.121094 113.828125 C 160.46875 113.640625 159.824219 113.4375 159.179688 113.214844 C 158.539062 112.992188 157.90625 112.753906 157.277344 112.496094 C 156.648438 112.238281 156.03125 111.960938 155.417969 111.667969 C 154.804688 111.371094 154.203125 111.0625 153.609375 110.730469 C 153.015625 110.402344 152.433594 110.058594 151.859375 109.695312 C 151.285156 109.332031 150.71875 108.953125 150.167969 108.558594 C 149.613281 108.164062 149.074219 107.753906 148.546875 107.328125 C 148.015625 106.902344 147.5 106.464844 146.996094 106.007812 C 146.492188 105.554688 146.003906 105.082031 145.523438 104.601562 C 145.046875 104.117188 144.585938 103.621094 144.136719 103.109375 C 143.6875 102.601562 143.253906 102.078125 142.835938 101.542969 C 142.417969 101.007812 142.015625 100.460938 141.628906 99.902344 C 141.242188 99.34375 140.871094 98.777344 140.515625 98.195312 C 140.160156 97.617188 139.824219 97.027344 139.503906 96.429688 C 139.183594 95.832031 138.878906 95.222656 138.59375 94.605469 C 138.304688 93.992188 138.039062 93.367188 137.789062 92.734375 C 137.539062 92.105469 137.304688 91.464844 137.089844 90.820312 C 136.878906 90.175781 136.683594 89.523438 136.507812 88.867188 C 136.328125 88.210938 136.171875 87.550781 136.035156 86.886719 C 135.894531 86.222656 135.773438 85.554688 135.675781 84.882812 C 135.574219 84.210938 135.492188 83.535156 135.433594 82.859375 C 135.371094 82.179688 135.328125 81.503906 135.304688 80.824219 C 135.28125 80.144531 135.277344 79.464844 135.292969 78.785156 C 135.3125 78.105469 135.347656 77.429688 135.402344 76.75 C 135.457031 76.074219 135.53125 75.398438 135.625 74.726562 C 135.71875 74.054688 135.828125 73.382812 135.960938 72.71875 C 136.09375 72.050781 136.246094 71.386719 136.414062 70.730469 C 136.585938 70.074219 136.773438 69.421875 136.980469 68.773438 C 137.1875 68.125 137.414062 67.484375 137.65625 66.851562 C 137.902344 66.21875 138.164062 65.589844 138.441406 64.972656 C 138.722656 64.351562 139.019531 63.742188 139.335938 63.140625 C 139.648438 62.539062 139.980469 61.945312 140.328125 61.363281 C 140.679688 60.78125 141.042969 60.207031 141.425781 59.644531 C 141.808594 59.082031 142.203125 58.53125 142.617188 57.992188 C 143.03125 57.453125 143.457031 56.925781 143.902344 56.414062 C 144.34375 55.898438 144.800781 55.398438 145.273438 54.910156 C 145.746094 54.421875 146.230469 53.945312 146.730469 53.484375 C 147.230469 53.023438 147.742188 52.578125 148.265625 52.148438 C 148.792969 51.71875 149.328125 51.300781 149.875 50.902344 C 150.425781 50.5 150.984375 50.117188 151.554688 49.75 C 152.125 49.382812 152.707031 49.03125 153.296875 48.695312 C 153.886719 48.359375 154.488281 48.042969 155.09375 47.742188 C 155.703125 47.441406 156.320312 47.160156 156.945312 46.894531 C 157.570312 46.628906 158.203125 46.382812 158.84375 46.15625 C 159.480469 45.925781 160.125 45.714844 160.777344 45.523438 C 161.429688 45.332031 162.085938 45.160156 162.746094 45.007812 C 163.40625 44.851562 164.070312 44.71875 164.742188 44.601562 C 165.410156 44.488281 166.082031 44.390625 166.753906 44.3125 C 167.429688 44.238281 168.105469 44.179688 168.785156 44.140625 C 169.460938 44.101562 170.140625 44.082031 170.816406 44.085938 C 171.484375 44.085938 172.191406 44.105469 172.890625 44.144531 Z M 172.890625 44.144531" fill-opacity=".776" fill-rule="evenodd"/><g clip-path="url(#a)"><path fill="#92278F" d="M 185.691406 75.878906 C 186.433594 87.261719 184.140625 97.566406 186.277344 104.875 C 189.941406 117.359375 206.167969 128.671875 198.582031 135.09375 C 196.183594 137.019531 192.054688 137.148438 189.636719 139.035156 C 185.78125 142.046875 188.417969 145.304688 188.757812 147.652344 C 188.921875 148.769531 187.914062 150.558594 184.578125 152.738281 C 187.097656 154.597656 186.867188 156.175781 185.96875 157.625 C 184.738281 158.464844 183.476562 159.25 182.179688 159.980469 C 180.882812 160.707031 179.554688 161.375 178.195312 161.984375 C 176.835938 162.589844 175.453125 163.136719 174.046875 163.617188 C 172.640625 164.101562 171.214844 164.519531 169.769531 164.871094 C 168.324219 165.226562 166.867188 165.511719 165.394531 165.734375 C 163.921875 165.957031 162.445312 166.109375 160.960938 166.199219 C 159.476562 166.285156 157.988281 166.304688 156.503906 166.257812 C 155.015625 166.210938 153.535156 166.097656 152.058594 165.917969 C 150.582031 165.734375 149.113281 165.488281 147.660156 165.175781 C 146.207031 164.859375 144.769531 164.484375 143.347656 164.039062 C 141.929688 163.59375 140.53125 163.085938 139.15625 162.515625 C 137.785156 161.949219 136.4375 161.316406 135.121094 160.625 C 133.804688 159.933594 132.519531 159.183594 131.269531 158.375 C 130.019531 157.566406 128.808594 156.703125 127.636719 155.785156 C 126.46875 154.867188 125.339844 153.898438 124.253906 152.878906 C 123.171875 151.859375 122.136719 150.789062 121.148438 149.675781 C 120.160156 148.5625 119.222656 147.40625 118.339844 146.207031 C 117.457031 145.011719 116.628906 143.773438 115.859375 142.5 C 115.085938 141.226562 114.371094 139.921875 113.71875 138.585938 C 113.066406 137.246094 112.472656 135.882812 111.941406 134.492188 C 111.410156 133.097656 110.945312 131.6875 110.542969 130.253906 C 110.136719 128.820312 109.800781 127.371094 109.527344 125.90625 C 109.257812 124.441406 109.050781 122.96875 108.910156 121.484375 C 108.773438 120 108.699219 118.515625 108.695312 117.027344 C 108.691406 115.535156 108.753906 114.050781 108.882812 112.566406 C 109.011719 111.082031 109.207031 109.605469 109.46875 108.140625 C 109.730469 106.675781 110.058594 105.222656 110.453125 103.789062 C 110.847656 102.351562 111.304688 100.933594 111.824219 99.539062 C 112.347656 98.144531 112.929688 96.777344 113.574219 95.433594 C 114.21875 94.09375 114.921875 92.78125 115.6875 91.503906 C 116.449219 90.222656 117.269531 88.984375 118.144531 87.777344 C 119.019531 86.574219 119.945312 85.414062 120.925781 84.292969 C 121.90625 83.171875 122.9375 82.097656 124.011719 81.070312 C 125.089844 80.042969 126.210938 79.066406 127.378906 78.140625 C 128.542969 77.214844 129.746094 76.34375 130.992188 75.527344 C 132.234375 74.710938 133.515625 73.953125 134.828125 73.25 C 136.140625 72.550781 137.480469 71.910156 138.851562 71.332031 C 140.222656 70.75 141.617188 70.234375 143.03125 69.78125 C 144.449219 69.328125 145.882812 68.9375 147.335938 68.617188 C 148.789062 68.292969 150.25 68.035156 151.726562 67.84375 C 153.203125 67.652344 154.683594 67.527344 156.171875 67.472656 C 157.65625 67.414062 159.144531 67.425781 160.628906 67.503906 C 162.113281 67.582031 163.59375 67.726562 165.066406 67.9375 C 166.539062 68.148438 167.996094 68.425781 169.445312 68.769531 C 170.894531 69.113281 172.320312 69.523438 173.734375 69.996094 C 175.144531 70.46875 176.53125 71.003906 177.890625 71.601562 C 179.253906 72.199219 180.585938 72.859375 181.890625 73.578125 C 183.191406 74.296875 184.460938 75.074219 185.691406 75.90625 Z M 185.691406 75.878906" fill-opacity=".776" fill-rule="evenodd"/></g><g clip-path="url(#b)"><path fill="#007FC6" d="M 175.125 185.089844 C 156.375 192.734375 131.273438 167.097656 127.894531 219.382812 C 115.703125 211.367188 102.785156 204.785156 89.136719 199.632812 C 88.574219 198.804688 88.039062 197.960938 87.53125 197.101562 C 87.019531 196.238281 86.539062 195.363281 86.082031 194.472656 C 85.628906 193.578125 85.203125 192.675781 84.804688 191.753906 C 84.40625 190.835938 84.035156 189.90625 83.695312 188.964844 C 83.355469 188.023438 83.046875 187.074219 82.765625 186.113281 C 82.484375 185.152344 82.234375 184.183594 82.015625 183.207031 C 81.792969 182.230469 81.605469 181.246094 81.445312 180.257812 C 81.285156 179.269531 81.160156 178.277344 81.0625 177.28125 C 80.964844 176.285156 80.898438 175.285156 80.863281 174.285156 C 80.832031 173.285156 80.828125 172.285156 80.855469 171.285156 C 80.882812 170.28125 80.941406 169.285156 81.03125 168.285156 C 81.125 167.289062 81.246094 166.296875 81.398438 165.308594 C 81.550781 164.316406 81.734375 163.335938 81.945312 162.355469 C 82.160156 161.378906 82.40625 160.40625 82.679688 159.445312 C 82.953125 158.480469 83.257812 157.527344 83.59375 156.585938 C 83.925781 155.640625 84.289062 154.710938 84.683594 153.789062 C 85.074219 152.867188 85.496094 151.960938 85.945312 151.066406 C 86.390625 150.171875 86.867188 149.292969 87.371094 148.425781 C 87.875 147.5625 88.40625 146.714844 88.964844 145.882812 C 89.519531 145.050781 90.101562 144.238281 90.710938 143.441406 C 91.320312 142.648438 91.949219 141.871094 92.605469 141.117188 C 93.261719 140.359375 93.941406 139.625 94.644531 138.914062 C 95.347656 138.199219 96.070312 137.511719 96.816406 136.84375 C 97.558594 136.175781 98.324219 135.53125 99.109375 134.910156 C 99.894531 134.292969 100.699219 133.699219 101.523438 133.128906 C 102.34375 132.558594 103.183594 132.015625 104.039062 131.5 C 104.894531 130.980469 105.769531 130.492188 106.65625 130.03125 C 107.542969 129.566406 108.441406 129.132812 109.355469 128.726562 C 110.269531 128.320312 111.195312 127.945312 112.132812 127.597656 C 113.070312 127.25 114.019531 126.929688 114.976562 126.640625 C 115.933594 126.355469 116.898438 126.09375 117.871094 125.867188 C 118.847656 125.640625 119.828125 125.441406 120.8125 125.273438 C 121.796875 125.109375 122.789062 124.972656 123.78125 124.867188 C 124.777344 124.761719 125.773438 124.691406 126.773438 124.648438 C 127.773438 124.605469 128.769531 124.59375 129.769531 124.613281 C 130.769531 124.632812 131.769531 124.6875 132.765625 124.769531 C 133.761719 124.851562 134.753906 124.964844 135.746094 125.109375 C 136.734375 125.253906 137.71875 125.429688 138.695312 125.636719 C 139.675781 125.84375 140.644531 126.082031 141.609375 126.347656 C 142.574219 126.613281 143.527344 126.914062 144.472656 127.238281 C 145.417969 127.566406 146.351562 127.921875 147.273438 128.308594 C 148.195312 128.695312 149.105469 129.109375 150.003906 129.550781 C 150.898438 129.992188 151.78125 130.464844 152.648438 130.960938 C 153.515625 131.457031 154.367188 131.984375 155.203125 132.535156 C 156.039062 133.085938 156.855469 133.660156 157.652344 134.265625 C 158.453125 134.867188 159.230469 135.492188 159.992188 136.144531 C 160.75 136.796875 161.488281 137.46875 162.207031 138.167969 C 162.925781 138.863281 163.621094 139.582031 164.292969 140.324219 C 164.964844 141.0625 165.613281 141.824219 166.238281 142.605469 C 166.863281 143.386719 167.464844 144.1875 168.039062 145.007812 C 168.613281 145.828125 169.164062 146.664062 169.6875 147.515625 C 170.210938 148.371094 170.707031 149.238281 171.171875 150.121094 C 171.640625 151.007812 172.082031 151.90625 172.496094 152.816406 C 172.90625 153.730469 173.292969 154.652344 173.644531 155.589844 C 174 156.523438 174.328125 157.472656 174.621094 158.429688 C 174.917969 159.382812 175.183594 160.347656 175.417969 161.320312 C 175.652344 162.296875 175.859375 163.273438 176.035156 164.261719 C 176.207031 165.246094 176.351562 166.238281 176.464844 167.230469 C 176.574219 168.226562 176.65625 169.222656 176.707031 170.222656 C 176.757812 171.222656 176.777344 172.222656 176.765625 173.226562 C 176.75 174.226562 176.707031 175.226562 176.632812 176.222656 C 176.558594 177.222656 176.453125 178.21875 176.316406 179.210938 C 176.179688 180.199219 176.011719 181.1875 175.8125 182.167969 C 175.613281 183.148438 175.382812 184.125 175.125 185.089844 Z M 175.125 185.089844" fill-opacity=".776" fill-rule="evenodd"/></g><g clip-path="url(#c)"><path fill="#01A6E6" d="M 147.597656 185.359375 C 137.691406 185.773438 129.699219 191.484375 127.894531 219.382812 C 115.769531 211.414062 102.929688 204.859375 89.367188 199.714844 C 89.40625 198.019531 89.585938 196.339844 89.902344 194.671875 C 90.214844 193.007812 90.664062 191.375 91.246094 189.785156 C 91.824219 188.191406 92.53125 186.65625 93.363281 185.179688 C 94.195312 183.699219 95.140625 182.300781 96.203125 180.976562 C 97.261719 179.65625 98.425781 178.429688 99.683594 177.296875 C 100.945312 176.164062 102.292969 175.140625 103.71875 174.230469 C 105.148438 173.316406 106.640625 172.527344 108.195312 171.859375 C 109.753906 171.191406 111.355469 170.65625 113 170.25 C 114.644531 169.84375 116.3125 169.574219 118 169.441406 C 119.6875 169.308594 121.378906 169.316406 123.066406 169.460938 C 124.753906 169.601562 126.417969 169.882812 128.058594 170.300781 C 129.703125 170.714844 131.300781 171.261719 132.851562 171.941406 C 134.40625 172.621094 135.890625 173.417969 137.3125 174.339844 C 138.734375 175.261719 140.074219 176.292969 141.328125 177.433594 C 142.582031 178.574219 143.734375 179.808594 144.785156 181.140625 C 145.835938 182.46875 146.773438 183.875 147.597656 185.359375 Z M 147.597656 185.359375" fill-opacity=".776" fill-rule="evenodd"/></g><path fill="#2063B2" d="M 192.902344 137.4375 C 191.726562 137.777344 190.636719 138.300781 189.636719 139.003906 C 185.78125 142.015625 188.417969 145.273438 188.757812 147.625 C 188.921875 148.738281 187.914062 150.53125 184.578125 152.710938 C 188.433594 155.558594 185.839844 157.734375 184.289062 159.832031 C 177.078125 165.039062 187.109375 176.316406 175.214844 185.0625 C 163.207031 190.011719 148.605469 181.277344 138.742188 187.984375 C 138.585938 187.082031 138.460938 186.175781 138.359375 185.265625 C 138.257812 184.355469 138.1875 183.441406 138.144531 182.527344 C 138.101562 181.613281 138.085938 180.699219 138.097656 179.78125 C 138.109375 178.867188 138.152344 177.953125 138.222656 177.039062 C 138.289062 176.128906 138.390625 175.21875 138.515625 174.3125 C 138.640625 173.402344 138.792969 172.503906 138.976562 171.605469 C 139.160156 170.707031 139.367188 169.816406 139.605469 168.933594 C 139.84375 168.046875 140.105469 167.171875 140.398438 166.304688 C 140.6875 165.4375 141.007812 164.578125 141.351562 163.730469 C 141.695312 162.882812 142.066406 162.046875 142.460938 161.222656 C 142.859375 160.394531 143.28125 159.582031 143.726562 158.785156 C 144.171875 157.984375 144.644531 157.203125 145.140625 156.433594 C 145.636719 155.664062 146.152344 154.910156 146.695312 154.171875 C 147.238281 153.433594 147.800781 152.714844 148.386719 152.011719 C 148.976562 151.308594 149.582031 150.625 150.210938 149.960938 C 150.839844 149.296875 151.488281 148.652344 152.15625 148.027344 C 152.828125 147.402344 153.515625 146.800781 154.21875 146.21875 C 154.925781 145.636719 155.648438 145.078125 156.390625 144.539062 C 157.132812 144.003906 157.886719 143.492188 158.660156 143 C 159.433594 142.511719 160.21875 142.046875 161.023438 141.605469 C 161.824219 141.164062 162.636719 140.75 163.464844 140.359375 C 164.292969 139.96875 165.128906 139.605469 165.980469 139.265625 C 166.828125 138.925781 167.6875 138.617188 168.558594 138.332031 C 169.425781 138.046875 170.304688 137.789062 171.1875 137.558594 C 172.074219 137.328125 172.964844 137.125 173.863281 136.949219 C 174.761719 136.777344 175.664062 136.628906 176.570312 136.507812 C 177.476562 136.390625 178.386719 136.300781 179.296875 136.238281 C 180.210938 136.175781 181.125 136.140625 182.039062 136.136719 C 182.953125 136.128906 183.867188 136.152344 184.777344 136.203125 C 185.691406 136.253906 186.601562 136.332031 187.511719 136.441406 C 188.417969 136.546875 189.320312 136.683594 190.222656 136.847656 C 191.121094 137.011719 192.015625 137.203125 192.902344 137.421875 Z M 192.902344 137.4375" fill-opacity=".776" fill-rule="evenodd"/><path fill="#12BCBC" d="M 53.453125 137.996094 C 54.015625 137.996094 54.578125 137.96875 55.136719 137.914062 C 55.695312 137.855469 56.25 137.773438 56.800781 137.664062 C 57.351562 137.554688 57.894531 137.417969 58.433594 137.257812 C 58.972656 137.09375 59.5 136.902344 60.019531 136.6875 C 60.539062 136.472656 61.046875 136.234375 61.539062 135.96875 C 62.035156 135.703125 62.519531 135.414062 62.984375 135.101562 C 63.453125 134.789062 63.902344 134.457031 64.335938 134.097656 C 64.769531 133.742188 65.1875 133.363281 65.585938 132.96875 C 65.980469 132.570312 66.359375 132.152344 66.714844 131.71875 C 67.070312 131.285156 67.40625 130.832031 67.71875 130.367188 C 68.03125 129.898438 68.320312 129.417969 68.582031 128.921875 C 68.847656 128.425781 69.089844 127.917969 69.304688 127.398438 C 69.519531 126.878906 69.707031 126.347656 69.871094 125.808594 C 70.035156 125.273438 70.167969 124.726562 70.28125 124.175781 C 70.390625 123.625 70.472656 123.070312 70.527344 122.507812 C 70.582031 121.949219 70.609375 121.386719 70.609375 120.824219 C 70.609375 120.261719 70.582031 119.703125 70.527344 119.144531 C 70.472656 118.582031 70.390625 118.027344 70.28125 117.476562 C 70.171875 116.925781 70.035156 116.378906 69.871094 115.84375 C 69.707031 115.304688 69.519531 114.777344 69.304688 114.257812 C 69.089844 113.738281 68.851562 113.230469 68.585938 112.734375 C 68.320312 112.238281 68.03125 111.753906 67.722656 111.289062 C 67.410156 110.820312 67.074219 110.371094 66.71875 109.933594 C 66.363281 109.5 65.984375 109.082031 65.589844 108.6875 C 65.191406 108.289062 64.777344 107.910156 64.339844 107.554688 C 63.90625 107.199219 63.457031 106.863281 62.988281 106.550781 C 62.523438 106.238281 62.042969 105.949219 61.546875 105.683594 C 61.050781 105.417969 60.542969 105.179688 60.023438 104.964844 C 59.507812 104.75 58.976562 104.558594 58.441406 104.398438 C 57.902344 104.234375 57.359375 104.097656 56.808594 103.988281 C 56.257812 103.878906 55.703125 103.796875 55.144531 103.738281 C 54.585938 103.683594 54.023438 103.65625 53.460938 103.65625 C 52.898438 103.65625 52.339844 103.683594 51.78125 103.742188 C 51.222656 103.796875 50.667969 103.878906 50.117188 103.988281 C 49.566406 104.097656 49.019531 104.234375 48.484375 104.398438 C 47.945312 104.5625 47.417969 104.75 46.898438 104.964844 C 46.378906 105.179688 45.871094 105.421875 45.375 105.6875 C 44.882812 105.953125 44.398438 106.242188 43.933594 106.554688 C 43.464844 106.867188 43.015625 107.199219 42.582031 107.558594 C 42.148438 107.914062 41.730469 108.292969 41.335938 108.6875 C 40.9375 109.085938 40.5625 109.503906 40.203125 109.9375 C 39.847656 110.375 39.515625 110.824219 39.203125 111.292969 C 38.890625 111.761719 38.601562 112.242188 38.335938 112.738281 C 38.074219 113.234375 37.832031 113.742188 37.617188 114.261719 C 37.402344 114.78125 37.214844 115.308594 37.050781 115.847656 C 36.890625 116.386719 36.753906 116.929688 36.644531 117.484375 C 36.535156 118.035156 36.453125 118.589844 36.398438 119.148438 C 36.34375 119.710938 36.316406 120.269531 36.316406 120.832031 C 36.316406 121.394531 36.34375 121.957031 36.402344 122.515625 C 36.457031 123.074219 36.539062 123.628906 36.652344 124.179688 C 36.761719 124.730469 36.898438 125.273438 37.0625 125.8125 C 37.226562 126.347656 37.414062 126.875 37.628906 127.394531 C 37.84375 127.914062 38.085938 128.421875 38.351562 128.914062 C 38.613281 129.410156 38.902344 129.890625 39.214844 130.359375 C 39.527344 130.824219 39.859375 131.277344 40.21875 131.710938 C 40.574219 132.144531 40.949219 132.558594 41.347656 132.957031 C 41.742188 133.355469 42.15625 133.730469 42.589844 134.085938 C 43.023438 134.445312 43.476562 134.777344 43.941406 135.089844 C 44.40625 135.402344 44.886719 135.691406 45.382812 135.957031 C 45.878906 136.222656 46.382812 136.460938 46.902344 136.679688 C 47.417969 136.894531 47.945312 137.082031 48.484375 137.246094 C 49.019531 137.410156 49.5625 137.546875 50.113281 137.660156 C 50.664062 137.769531 51.21875 137.851562 51.777344 137.910156 C 52.335938 137.964844 52.894531 137.992188 53.453125 137.996094 Z M 53.453125 137.996094" fill-opacity=".776" fill-rule="evenodd"/><path fill="#00B9F1" d="M 89.367188 161.890625 C 90.394531 161.894531 91.414062 161.796875 92.421875 161.597656 C 93.429688 161.402344 94.410156 161.105469 95.359375 160.714844 C 96.308594 160.324219 97.210938 159.84375 98.070312 159.273438 C 98.925781 158.707031 99.714844 158.058594 100.445312 157.332031 C 101.171875 156.605469 101.824219 155.816406 102.394531 154.960938 C 102.96875 154.109375 103.453125 153.207031 103.847656 152.257812 C 104.242188 151.308594 104.542969 150.328125 104.746094 149.320312 C 104.949219 148.308594 105.050781 147.292969 105.050781 146.261719 C 105.054688 145.234375 104.957031 144.214844 104.757812 143.207031 C 104.558594 142.195312 104.261719 141.214844 103.871094 140.265625 C 103.480469 139.3125 103 138.410156 102.429688 137.554688 C 101.859375 136.695312 101.210938 135.90625 100.488281 135.175781 C 99.761719 134.449219 98.972656 133.796875 98.117188 133.222656 C 97.265625 132.652344 96.363281 132.167969 95.414062 131.773438 C 94.464844 131.378906 93.488281 131.078125 92.480469 130.878906 C 91.472656 130.675781 90.453125 130.574219 89.425781 130.574219 C 88.398438 130.574219 87.382812 130.671875 86.375 130.871094 C 85.367188 131.070312 84.386719 131.367188 83.4375 131.761719 C 82.488281 132.15625 81.585938 132.636719 80.730469 133.207031 C 79.875 133.777344 79.085938 134.429688 78.359375 135.15625 C 77.632812 135.882812 76.984375 136.671875 76.410156 137.527344 C 75.839844 138.382812 75.359375 139.285156 74.964844 140.238281 C 74.570312 141.1875 74.273438 142.167969 74.074219 143.175781 C 73.871094 144.183594 73.773438 145.203125 73.773438 146.234375 C 73.773438 147.257812 73.875 148.273438 74.078125 149.28125 C 74.277344 150.285156 74.574219 151.261719 74.964844 152.210938 C 75.359375 153.15625 75.839844 154.058594 76.40625 154.910156 C 76.976562 155.765625 77.621094 156.554688 78.347656 157.28125 C 79.070312 158.007812 79.855469 158.65625 80.707031 159.226562 C 81.558594 159.800781 82.457031 160.285156 83.402344 160.679688 C 84.347656 161.074219 85.320312 161.375 86.324219 161.578125 C 87.328125 161.78125 88.34375 161.886719 89.367188 161.890625 Z M 89.367188 161.890625" fill-opacity=".776" fill-rule="evenodd"/><path fill="#8DC63F" d="M 50.988281 96.214844 C 51.777344 96.214844 52.558594 96.136719 53.332031 95.984375 C 54.105469 95.828125 54.859375 95.601562 55.585938 95.300781 C 56.316406 94.996094 57.007812 94.625 57.664062 94.1875 C 58.320312 93.75 58.925781 93.25 59.484375 92.691406 C 60.042969 92.132812 60.542969 91.523438 60.980469 90.867188 C 61.417969 90.210938 61.789062 89.519531 62.089844 88.789062 C 62.390625 88.058594 62.621094 87.304688 62.773438 86.53125 C 62.925781 85.757812 63.003906 84.972656 63.003906 84.183594 C 63.003906 83.394531 62.925781 82.609375 62.773438 81.835938 C 62.617188 81.0625 62.390625 80.308594 62.089844 79.578125 C 61.785156 78.847656 61.417969 78.15625 60.976562 77.5 C 60.539062 76.839844 60.039062 76.234375 59.484375 75.675781 C 58.925781 75.117188 58.316406 74.617188 57.660156 74.179688 C 57.003906 73.738281 56.3125 73.371094 55.582031 73.066406 C 54.855469 72.765625 54.101562 72.539062 53.328125 72.382812 C 52.554688 72.230469 51.773438 72.152344 50.984375 72.152344 C 50.195312 72.152344 49.414062 72.230469 48.640625 72.386719 C 47.867188 72.539062 47.113281 72.769531 46.386719 73.070312 C 45.65625 73.375 44.964844 73.746094 44.308594 74.183594 C 43.652344 74.625 43.046875 75.121094 42.488281 75.679688 C 41.929688 76.242188 41.433594 76.847656 40.996094 77.503906 C 40.558594 78.164062 40.1875 78.855469 39.886719 79.585938 C 39.585938 80.316406 39.355469 81.070312 39.203125 81.84375 C 39.050781 82.617188 38.972656 83.402344 38.972656 84.191406 C 38.976562 84.980469 39.054688 85.761719 39.207031 86.535156 C 39.363281 87.308594 39.59375 88.0625 39.894531 88.789062 C 40.195312 89.519531 40.566406 90.210938 41.003906 90.867188 C 41.445312 91.523438 41.941406 92.132812 42.5 92.6875 C 43.058594 93.246094 43.664062 93.746094 44.320312 94.183594 C 44.976562 94.621094 45.667969 94.992188 46.394531 95.296875 C 47.125 95.597656 47.875 95.828125 48.648438 95.980469 C 49.421875 96.136719 50.199219 96.214844 50.988281 96.214844 Z M 50.988281 96.214844" fill-opacity=".776" fill-rule="evenodd"/><path fill="#FFD900" d="M 44.996094 54.292969 C 44.996094 54.976562 44.929688 55.65625 44.796875 56.324219 C 44.664062 56.996094 44.464844 57.648438 44.203125 58.28125 C 43.941406 58.910156 43.621094 59.511719 43.242188 60.082031 C 42.863281 60.648438 42.433594 61.175781 41.949219 61.660156 C 41.464844 62.144531 40.941406 62.574219 40.371094 62.953125 C 39.804688 63.335938 39.203125 63.65625 38.574219 63.917969 C 37.941406 64.179688 37.292969 64.375 36.621094 64.511719 C 35.953125 64.644531 35.273438 64.710938 34.59375 64.710938 C 33.910156 64.710938 33.234375 64.644531 32.5625 64.511719 C 31.890625 64.375 31.242188 64.179688 30.609375 63.917969 C 29.980469 63.65625 29.378906 63.335938 28.8125 62.953125 C 28.242188 62.574219 27.71875 62.144531 27.234375 61.660156 C 26.753906 61.175781 26.320312 60.648438 25.941406 60.082031 C 25.5625 59.511719 25.242188 58.910156 24.980469 58.28125 C 24.71875 57.648438 24.519531 56.996094 24.386719 56.324219 C 24.253906 55.65625 24.1875 54.976562 24.1875 54.292969 C 24.1875 53.609375 24.253906 52.933594 24.386719 52.261719 C 24.519531 51.589844 24.71875 50.9375 24.980469 50.308594 C 25.242188 49.675781 25.5625 49.074219 25.941406 48.503906 C 26.320312 47.9375 26.753906 47.410156 27.234375 46.925781 C 27.71875 46.445312 28.242188 46.011719 28.8125 45.632812 C 29.378906 45.25 29.980469 44.929688 30.609375 44.667969 C 31.242188 44.40625 31.890625 44.210938 32.5625 44.078125 C 33.234375 43.941406 33.910156 43.875 34.59375 43.875 C 35.273438 43.875 35.953125 43.941406 36.621094 44.078125 C 37.292969 44.210938 37.941406 44.40625 38.574219 44.667969 C 39.203125 44.929688 39.804688 45.25 40.371094 45.632812 C 40.941406 46.011719 41.464844 46.445312 41.949219 46.925781 C 42.433594 47.410156 42.863281 47.9375 43.242188 48.503906 C 43.621094 49.074219 43.941406 49.675781 44.203125 50.308594 C 44.464844 50.9375 44.664062 51.589844 44.796875 52.261719 C 44.929688 52.933594 44.996094 53.609375 44.996094 54.292969 Z M 44.996094 54.292969" fill-opacity=".776"/><path fill="#009444" d="M 56.574219 35.207031 C 57.210938 35.207031 57.84375 35.144531 58.46875 35.019531 C 59.09375 34.898438 59.703125 34.710938 60.292969 34.46875 C 60.882812 34.226562 61.441406 33.925781 61.972656 33.570312 C 62.503906 33.214844 62.992188 32.8125 63.445312 32.363281 C 63.894531 31.910156 64.300781 31.417969 64.652344 30.890625 C 65.007812 30.359375 65.308594 29.796875 65.554688 29.207031 C 65.796875 28.617188 65.980469 28.007812 66.105469 27.382812 C 66.230469 26.757812 66.292969 26.125 66.292969 25.484375 C 66.292969 24.847656 66.234375 24.214844 66.109375 23.589844 C 65.984375 22.960938 65.800781 22.351562 65.558594 21.761719 C 65.3125 21.171875 65.015625 20.613281 64.660156 20.082031 C 64.304688 19.550781 63.902344 19.058594 63.453125 18.605469 C 63 18.15625 62.511719 17.75 61.980469 17.394531 C 61.449219 17.042969 60.890625 16.742188 60.300781 16.496094 C 59.710938 16.253906 59.105469 16.066406 58.480469 15.941406 C 57.851562 15.816406 57.222656 15.753906 56.582031 15.753906 C 55.945312 15.753906 55.3125 15.816406 54.6875 15.941406 C 54.0625 16.066406 53.453125 16.25 52.867188 16.496094 C 52.277344 16.738281 51.714844 17.039062 51.1875 17.394531 C 50.65625 17.75 50.164062 18.152344 49.714844 18.601562 C 49.261719 19.054688 48.859375 19.546875 48.503906 20.078125 C 48.152344 20.609375 47.851562 21.167969 47.605469 21.757812 C 47.363281 22.347656 47.179688 22.957031 47.054688 23.582031 C 46.929688 24.210938 46.867188 24.84375 46.867188 25.480469 C 46.867188 26.117188 46.929688 26.75 47.054688 27.375 C 47.179688 28 47.367188 28.609375 47.609375 29.199219 C 47.855469 29.789062 48.152344 30.347656 48.507812 30.878906 C 48.863281 31.410156 49.265625 31.898438 49.714844 32.351562 C 50.164062 32.800781 50.65625 33.207031 51.183594 33.558594 C 51.714844 33.914062 52.273438 34.214844 52.859375 34.460938 C 53.449219 34.703125 54.054688 34.890625 54.679688 35.015625 C 55.304688 35.140625 55.9375 35.203125 56.574219 35.207031 Z M 56.574219 35.207031" fill-opacity=".776" fill-rule="evenodd"/><path fill="#56BA48" d="M 59.871094 59.445312 C 60.292969 59.445312 60.710938 59.40625 61.121094 59.324219 C 61.535156 59.242188 61.9375 59.117188 62.328125 58.957031 C 62.714844 58.796875 63.085938 58.597656 63.433594 58.363281 C 63.785156 58.128906 64.109375 57.863281 64.40625 57.5625 C 64.707031 57.265625 64.972656 56.941406 65.207031 56.589844 C 65.441406 56.238281 65.636719 55.871094 65.796875 55.480469 C 65.960938 55.089844 66.082031 54.6875 66.164062 54.273438 C 66.246094 53.863281 66.285156 53.445312 66.285156 53.023438 C 66.285156 52.601562 66.246094 52.183594 66.164062 51.769531 C 66.082031 51.355469 65.960938 50.953125 65.796875 50.5625 C 65.636719 50.171875 65.441406 49.804688 65.207031 49.453125 C 64.972656 49.101562 64.707031 48.777344 64.40625 48.480469 C 64.109375 48.179688 63.785156 47.914062 63.433594 47.679688 C 63.085938 47.445312 62.714844 47.246094 62.328125 47.085938 C 61.9375 46.925781 61.535156 46.804688 61.121094 46.722656 C 60.710938 46.640625 60.292969 46.597656 59.871094 46.597656 C 59.449219 46.597656 59.03125 46.640625 58.617188 46.722656 C 58.207031 46.804688 57.804688 46.925781 57.414062 47.085938 C 57.027344 47.246094 56.65625 47.445312 56.304688 47.679688 C 55.957031 47.914062 55.632812 48.179688 55.332031 48.480469 C 55.035156 48.777344 54.769531 49.101562 54.535156 49.453125 C 54.300781 49.804688 54.105469 50.171875 53.941406 50.5625 C 53.78125 50.953125 53.660156 51.355469 53.578125 51.769531 C 53.496094 52.183594 53.453125 52.601562 53.453125 53.023438 C 53.457031 53.441406 53.496094 53.859375 53.582031 54.273438 C 53.664062 54.6875 53.785156 55.089844 53.945312 55.476562 C 54.109375 55.867188 54.304688 56.238281 54.539062 56.585938 C 54.773438 56.9375 55.039062 57.261719 55.339844 57.558594 C 55.636719 57.859375 55.960938 58.125 56.308594 58.359375 C 56.660156 58.59375 57.027344 58.792969 57.417969 58.953125 C 57.804688 59.113281 58.207031 59.238281 58.621094 59.320312 C 59.03125 59.402344 59.449219 59.445312 59.871094 59.445312 Z M 59.871094 59.445312" fill-opacity=".776" fill-rule="evenodd"/><g clip-path="url(#d)"><path fill="#FBAD17" d="M 73.253906 18.59375 C 73.675781 18.59375 74.089844 18.554688 74.503906 18.472656 C 74.917969 18.390625 75.320312 18.269531 75.707031 18.105469 C 76.097656 17.945312 76.46875 17.746094 76.816406 17.511719 C 77.167969 17.277344 77.492188 17.011719 77.789062 16.714844 C 78.085938 16.414062 78.355469 16.089844 78.585938 15.742188 C 78.820312 15.390625 79.019531 15.019531 79.179688 14.628906 C 79.339844 14.238281 79.464844 13.839844 79.546875 13.425781 C 79.628906 13.011719 79.667969 12.59375 79.667969 12.171875 C 79.667969 11.75 79.628906 11.332031 79.546875 10.917969 C 79.464844 10.503906 79.339844 10.101562 79.179688 9.710938 C 79.019531 9.324219 78.820312 8.953125 78.585938 8.601562 C 78.355469 8.25 78.085938 7.925781 77.789062 7.628906 C 77.492188 7.332031 77.167969 7.0625 76.816406 6.828125 C 76.46875 6.59375 76.097656 6.398438 75.707031 6.234375 C 75.320312 6.074219 74.917969 5.953125 74.503906 5.871094 C 74.089844 5.789062 73.675781 5.746094 73.253906 5.746094 C 72.832031 5.746094 72.414062 5.789062 72 5.871094 C 71.585938 5.953125 71.1875 6.074219 70.796875 6.234375 C 70.40625 6.398438 70.039062 6.59375 69.6875 6.828125 C 69.335938 7.0625 69.015625 7.332031 68.714844 7.628906 C 68.417969 7.925781 68.152344 8.25 67.917969 8.601562 C 67.683594 8.953125 67.484375 9.324219 67.324219 9.710938 C 67.164062 10.101562 67.042969 10.503906 66.960938 10.917969 C 66.878906 11.332031 66.835938 11.75 66.835938 12.171875 C 66.835938 12.59375 66.878906 13.011719 66.960938 13.421875 C 67.046875 13.835938 67.167969 14.238281 67.328125 14.628906 C 67.492188 15.015625 67.6875 15.386719 67.921875 15.738281 C 68.15625 16.085938 68.421875 16.410156 68.71875 16.710938 C 69.019531 17.007812 69.339844 17.273438 69.691406 17.507812 C 70.042969 17.742188 70.410156 17.941406 70.800781 18.101562 C 71.1875 18.265625 71.589844 18.386719 72.003906 18.46875 C 72.414062 18.550781 72.832031 18.59375 73.253906 18.59375 Z M 73.253906 18.59375" fill-opacity=".776" fill-rule="evenodd"/></g><path fill="#F15C22" d="M 33.84375 32.917969 C 34.160156 32.914062 34.476562 32.882812 34.789062 32.820312 C 35.101562 32.753906 35.402344 32.660156 35.699219 32.539062 C 35.992188 32.414062 36.269531 32.265625 36.535156 32.085938 C 36.796875 31.90625 37.042969 31.707031 37.265625 31.480469 C 37.492188 31.253906 37.691406 31.007812 37.867188 30.742188 C 38.042969 30.472656 38.191406 30.195312 38.3125 29.898438 C 38.433594 29.605469 38.523438 29.300781 38.585938 28.988281 C 38.648438 28.671875 38.675781 28.359375 38.675781 28.039062 C 38.675781 27.71875 38.644531 27.402344 38.582031 27.089844 C 38.515625 26.777344 38.425781 26.476562 38.300781 26.179688 C 38.179688 25.886719 38.027344 25.605469 37.851562 25.34375 C 37.671875 25.078125 37.472656 24.832031 37.246094 24.605469 C 37.019531 24.382812 36.773438 24.179688 36.507812 24.003906 C 36.246094 23.828125 35.964844 23.679688 35.667969 23.558594 C 35.375 23.4375 35.070312 23.34375 34.757812 23.28125 C 34.445312 23.222656 34.132812 23.191406 33.8125 23.191406 C 33.492188 23.191406 33.179688 23.222656 32.867188 23.285156 C 32.554688 23.347656 32.25 23.441406 31.957031 23.5625 C 31.660156 23.683594 31.382812 23.835938 31.117188 24.011719 C 30.851562 24.191406 30.609375 24.390625 30.382812 24.617188 C 30.15625 24.84375 29.957031 25.089844 29.78125 25.355469 C 29.601562 25.621094 29.453125 25.898438 29.332031 26.195312 C 29.210938 26.488281 29.117188 26.792969 29.054688 27.105469 C 28.996094 27.417969 28.964844 27.734375 28.964844 28.054688 C 28.964844 28.375 28.996094 28.691406 29.058594 29.003906 C 29.121094 29.316406 29.214844 29.621094 29.339844 29.917969 C 29.460938 30.210938 29.613281 30.492188 29.789062 30.757812 C 29.96875 31.023438 30.171875 31.269531 30.398438 31.496094 C 30.625 31.722656 30.871094 31.921875 31.136719 32.101562 C 31.402344 32.277344 31.683594 32.425781 31.980469 32.546875 C 32.273438 32.671875 32.578125 32.761719 32.890625 32.824219 C 33.207031 32.886719 33.523438 32.917969 33.84375 32.917969 Z M 33.84375 32.917969" fill-opacity=".776" fill-rule="evenodd"/><path fill="#FBAD17" d="M 149.289062 82.527344 C 149.289062 83.855469 149.222656 85.183594 149.09375 86.507812 C 148.964844 87.832031 148.769531 89.148438 148.507812 90.453125 C 148.25 91.757812 147.925781 93.046875 147.542969 94.320312 C 147.15625 95.59375 146.707031 96.847656 146.199219 98.074219 C 145.691406 99.304688 145.125 100.507812 144.496094 101.679688 C 143.871094 102.855469 143.1875 103.996094 142.449219 105.101562 C 141.710938 106.207031 140.921875 107.277344 140.078125 108.304688 C 139.234375 109.332031 138.34375 110.316406 137.402344 111.257812 C 136.460938 112.199219 135.480469 113.09375 134.453125 113.9375 C 133.425781 114.78125 132.359375 115.574219 131.253906 116.3125 C 130.148438 117.050781 129.007812 117.734375 127.835938 118.363281 C 126.664062 118.988281 125.464844 119.558594 124.234375 120.066406 C 123.007812 120.578125 121.757812 121.023438 120.484375 121.410156 C 119.214844 121.796875 117.925781 122.121094 116.621094 122.378906 C 115.320312 122.640625 114.007812 122.835938 112.683594 122.964844 C 111.359375 123.09375 110.035156 123.160156 108.707031 123.160156 C 107.375 123.160156 106.050781 123.09375 104.726562 122.964844 C 103.40625 122.835938 102.089844 122.640625 100.789062 122.378906 C 99.484375 122.121094 98.195312 121.796875 96.925781 121.410156 C 95.652344 121.023438 94.402344 120.578125 93.175781 120.066406 C 91.945312 119.558594 90.746094 118.988281 89.574219 118.363281 C 88.402344 117.734375 87.261719 117.050781 86.15625 116.3125 C 85.054688 115.574219 83.988281 114.78125 82.960938 113.9375 C 81.929688 113.09375 80.949219 112.199219 80.007812 111.257812 C 79.066406 110.316406 78.175781 109.332031 77.332031 108.304688 C 76.488281 107.277344 75.699219 106.207031 74.960938 105.101562 C 74.222656 103.996094 73.539062 102.855469 72.914062 101.679688 C 72.285156 100.507812 71.71875 99.304688 71.210938 98.074219 C 70.703125 96.847656 70.253906 95.59375 69.867188 94.320312 C 69.484375 93.046875 69.160156 91.757812 68.902344 90.453125 C 68.640625 89.148438 68.445312 87.832031 68.316406 86.507812 C 68.1875 85.183594 68.121094 83.855469 68.121094 82.527344 C 68.121094 81.195312 68.1875 79.867188 68.316406 78.542969 C 68.445312 77.21875 68.640625 75.902344 68.902344 74.597656 C 69.160156 73.292969 69.484375 72.003906 69.867188 70.730469 C 70.253906 69.457031 70.703125 68.203125 71.210938 66.976562 C 71.71875 65.746094 72.285156 64.542969 72.914062 63.371094 C 73.539062 62.195312 74.222656 61.058594 74.960938 59.949219 C 75.699219 58.84375 76.488281 57.777344 77.332031 56.746094 C 78.175781 55.71875 79.066406 54.734375 80.007812 53.792969 C 80.949219 52.851562 81.929688 51.957031 82.960938 51.113281 C 83.988281 50.269531 85.054688 49.476562 86.15625 48.738281 C 87.261719 48 88.402344 47.316406 89.574219 46.6875 C 90.746094 46.0625 91.945312 45.492188 93.175781 44.984375 C 94.402344 44.476562 95.652344 44.027344 96.925781 43.640625 C 98.195312 43.253906 99.484375 42.929688 100.789062 42.671875 C 102.089844 42.410156 103.40625 42.21875 104.726562 42.085938 C 106.050781 41.957031 107.375 41.890625 108.707031 41.890625 C 110.035156 41.890625 111.359375 41.957031 112.683594 42.085938 C 114.007812 42.21875 115.320312 42.410156 116.621094 42.671875 C 117.925781 42.929688 119.214844 43.253906 120.484375 43.640625 C 121.757812 44.027344 123.007812 44.476562 124.234375 44.984375 C 125.464844 45.492188 126.664062 46.0625 127.835938 46.6875 C 129.007812 47.316406 130.148438 48 131.253906 48.738281 C 132.359375 49.476562 133.425781 50.269531 134.453125 51.113281 C 135.480469 51.957031 136.460938 52.851562 137.402344 53.792969 C 138.34375 54.734375 139.234375 55.71875 140.078125 56.746094 C 140.921875 57.777344 141.710938 58.84375 142.449219 59.949219 C 143.1875 61.058594 143.871094 62.195312 144.496094 63.371094 C 145.125 64.542969 145.691406 65.746094 146.199219 66.976562 C 146.707031 68.203125 147.15625 69.457031 147.542969 70.730469 C 147.925781 72.003906 148.25 73.292969 148.507812 74.597656 C 148.769531 75.902344 148.964844 77.21875 149.09375 78.542969 C 149.222656 79.867188 149.289062 81.195312 149.289062 82.527344 Z M 149.289062 82.527344" fill-opacity=".776"/><path fill="#EC008B" d="M 131.125 21.019531 C 150.574219 25.035156 166.867188 34.789062 176.476562 48.820312 C 176.394531 49.414062 176.292969 50.003906 176.175781 50.59375 C 176.054688 51.179688 175.917969 51.765625 175.761719 52.34375 C 175.609375 52.921875 175.433594 53.496094 175.242188 54.066406 C 175.054688 54.636719 174.84375 55.195312 174.621094 55.753906 C 174.394531 56.308594 174.152344 56.855469 173.890625 57.398438 C 173.632812 57.9375 173.355469 58.46875 173.066406 58.992188 C 172.773438 59.515625 172.464844 60.03125 172.140625 60.535156 C 171.816406 61.039062 171.476562 61.535156 171.121094 62.015625 C 170.765625 62.5 170.398438 62.972656 170.015625 63.433594 C 169.628906 63.894531 169.230469 64.34375 168.820312 64.777344 C 168.410156 65.214844 167.984375 65.636719 167.546875 66.046875 C 167.109375 66.453125 166.660156 66.851562 166.195312 67.230469 C 165.734375 67.613281 165.261719 67.980469 164.777344 68.332031 C 164.289062 68.683594 163.796875 69.019531 163.289062 69.34375 C 162.785156 69.664062 162.269531 69.96875 161.742188 70.257812 C 161.21875 70.546875 160.6875 70.820312 160.144531 71.078125 C 159.601562 71.335938 159.054688 71.574219 158.496094 71.796875 C 157.941406 72.019531 157.378906 72.222656 156.808594 72.410156 C 156.238281 72.597656 155.664062 72.765625 155.085938 72.917969 C 154.507812 73.070312 153.921875 73.203125 153.335938 73.320312 C 152.746094 73.4375 152.15625 73.53125 151.5625 73.613281 C 150.96875 73.691406 150.371094 73.75 149.773438 73.792969 C 149.175781 73.835938 148.578125 73.859375 147.980469 73.863281 C 147.382812 73.867188 146.78125 73.855469 146.183594 73.824219 C 145.585938 73.789062 144.988281 73.738281 144.394531 73.667969 C 143.800781 73.601562 143.207031 73.511719 142.617188 73.40625 C 142.027344 73.300781 141.441406 73.175781 140.859375 73.035156 C 140.277344 72.890625 139.699219 72.730469 139.128906 72.554688 C 138.558594 72.375 137.992188 72.179688 137.429688 71.964844 C 136.871094 71.753906 136.320312 71.523438 135.773438 71.273438 C 135.226562 71.027344 134.691406 70.761719 134.160156 70.480469 C 133.632812 70.199219 133.109375 69.902344 132.601562 69.589844 C 132.089844 69.277344 131.589844 68.949219 131.097656 68.605469 C 130.605469 68.261719 130.128906 67.902344 129.660156 67.527344 C 129.191406 67.152344 128.734375 66.765625 128.289062 66.363281 C 127.847656 65.960938 127.414062 65.542969 126.996094 65.117188 C 126.578125 64.6875 126.171875 64.246094 125.78125 63.789062 C 125.390625 63.335938 125.011719 62.871094 124.652344 62.394531 C 124.289062 61.914062 123.941406 61.425781 123.609375 60.929688 C 123.277344 60.429688 122.960938 59.917969 122.660156 59.402344 C 122.359375 58.882812 122.074219 58.355469 121.804688 57.816406 C 121.539062 57.28125 121.285156 56.738281 121.050781 56.1875 C 120.816406 55.632812 120.601562 55.074219 120.402344 54.507812 C 120.199219 53.945312 120.019531 53.371094 119.855469 52.796875 C 119.691406 52.21875 119.542969 51.636719 119.414062 51.050781 C 119.285156 50.464844 119.175781 49.878906 119.085938 49.285156 C 118.992188 48.691406 118.917969 48.097656 118.863281 47.5 C 118.808594 46.902344 118.769531 46.304688 118.753906 45.703125 C 118.734375 45.105469 118.734375 44.503906 118.753906 43.90625 C 118.773438 43.304688 118.808594 42.707031 118.867188 42.109375 C 118.921875 41.511719 118.996094 40.917969 119.089844 40.324219 C 119.183594 39.734375 119.292969 39.144531 119.421875 38.558594 C 119.550781 37.972656 119.699219 37.390625 119.863281 36.816406 C 120.027344 36.238281 120.210938 35.667969 120.410156 35.101562 C 120.613281 34.539062 120.832031 33.980469 121.066406 33.425781 C 121.300781 32.875 121.550781 32.332031 121.820312 31.796875 C 122.089844 31.257812 122.375 30.730469 122.675781 30.214844 C 122.976562 29.695312 123.292969 29.1875 123.625 28.6875 C 123.960938 28.1875 124.308594 27.699219 124.671875 27.222656 C 125.035156 26.746094 125.410156 26.28125 125.800781 25.828125 C 126.195312 25.375 126.601562 24.933594 127.019531 24.503906 C 127.4375 24.074219 127.871094 23.660156 128.316406 23.257812 C 128.757812 22.855469 129.214844 22.46875 129.683594 22.09375 C 130.152344 21.722656 130.632812 21.363281 131.125 21.019531 Z M 131.125 21.019531" fill-opacity=".776" fill-rule="evenodd"/><path fill="#56BA48" d="M 95.042969 64.71875 C 95.835938 64.71875 96.632812 64.679688 97.425781 64.601562 C 98.214844 64.523438 99.003906 64.40625 99.785156 64.25 C 100.566406 64.09375 101.335938 63.902344 102.097656 63.671875 C 102.859375 63.4375 103.609375 63.171875 104.34375 62.867188 C 105.082031 62.5625 105.800781 62.21875 106.503906 61.84375 C 107.203125 61.46875 107.886719 61.058594 108.546875 60.617188 C 109.210938 60.175781 109.847656 59.699219 110.464844 59.195312 C 111.082031 58.6875 111.667969 58.15625 112.234375 57.589844 C 112.796875 57.027344 113.332031 56.4375 113.835938 55.820312 C 114.339844 55.203125 114.8125 54.566406 115.257812 53.902344 C 115.699219 53.238281 116.109375 52.558594 116.484375 51.855469 C 116.859375 51.152344 117.199219 50.429688 117.503906 49.695312 C 117.808594 48.957031 118.078125 48.210938 118.308594 47.445312 C 118.539062 46.683594 118.730469 45.910156 118.886719 45.128906 C 119.042969 44.347656 119.160156 43.558594 119.238281 42.765625 C 119.316406 41.972656 119.355469 41.179688 119.355469 40.382812 C 119.355469 39.585938 119.316406 38.789062 119.238281 37.996094 C 119.160156 37.203125 119.042969 36.414062 118.886719 35.632812 C 118.734375 34.851562 118.539062 34.078125 118.308594 33.316406 C 118.078125 32.554688 117.808594 31.804688 117.503906 31.070312 C 117.199219 30.332031 116.859375 29.613281 116.484375 28.910156 C 116.109375 28.207031 115.699219 27.523438 115.257812 26.859375 C 114.816406 26.199219 114.34375 25.558594 113.839844 24.941406 C 113.332031 24.328125 112.800781 23.738281 112.234375 23.171875 C 111.671875 22.609375 111.085938 22.074219 110.46875 21.570312 C 109.851562 21.0625 109.214844 20.589844 108.554688 20.148438 C 107.890625 19.703125 107.207031 19.292969 106.507812 18.917969 C 105.804688 18.542969 105.085938 18.203125 104.351562 17.898438 C 103.613281 17.59375 102.867188 17.324219 102.105469 17.09375 C 101.34375 16.863281 100.570312 16.667969 99.789062 16.511719 C 99.011719 16.355469 98.222656 16.242188 97.429688 16.164062 C 96.640625 16.085938 95.84375 16.046875 95.046875 16.046875 C 94.253906 16.046875 93.457031 16.085938 92.667969 16.164062 C 91.875 16.238281 91.085938 16.355469 90.308594 16.511719 C 89.527344 16.667969 88.753906 16.859375 87.992188 17.09375 C 87.230469 17.324219 86.484375 17.59375 85.746094 17.898438 C 85.011719 18.203125 84.292969 18.542969 83.589844 18.917969 C 82.890625 19.292969 82.207031 19.703125 81.546875 20.144531 C 80.882812 20.589844 80.246094 21.0625 79.628906 21.570312 C 79.015625 22.074219 78.425781 22.609375 77.863281 23.171875 C 77.300781 23.734375 76.765625 24.324219 76.261719 24.941406 C 75.753906 25.558594 75.28125 26.199219 74.839844 26.859375 C 74.398438 27.523438 73.988281 28.207031 73.613281 28.910156 C 73.238281 29.613281 72.898438 30.332031 72.59375 31.066406 C 72.289062 31.804688 72.019531 32.554688 71.789062 33.316406 C 71.558594 34.078125 71.363281 34.851562 71.210938 35.632812 C 71.054688 36.414062 70.9375 37.203125 70.859375 37.996094 C 70.78125 38.789062 70.742188 39.585938 70.742188 40.382812 C 70.746094 41.179688 70.785156 41.972656 70.863281 42.765625 C 70.941406 43.558594 71.0625 44.34375 71.21875 45.125 C 71.375 45.90625 71.566406 46.675781 71.800781 47.441406 C 72.03125 48.203125 72.300781 48.949219 72.605469 49.6875 C 72.910156 50.421875 73.25 51.140625 73.625 51.84375 C 74 52.542969 74.410156 53.226562 74.851562 53.890625 C 75.292969 54.550781 75.765625 55.191406 76.269531 55.804688 C 76.777344 56.421875 77.308594 57.011719 77.871094 57.574219 C 78.433594 58.136719 79.023438 58.671875 79.636719 59.175781 C 80.253906 59.683594 80.890625 60.15625 81.550781 60.601562 C 82.210938 61.042969 82.894531 61.453125 83.59375 61.828125 C 84.296875 62.203125 85.015625 62.546875 85.75 62.851562 C 86.484375 63.15625 87.230469 63.425781 87.992188 63.65625 C 88.753906 63.890625 89.523438 64.085938 90.304688 64.242188 C 91.082031 64.398438 91.867188 64.515625 92.660156 64.597656 C 93.453125 64.675781 94.246094 64.714844 95.042969 64.71875 Z M 95.042969 64.71875" fill-opacity=".776" fill-rule="evenodd"/></svg>