<svg xmlns="http://www.w3.org/2000/svg" width="224.88" viewBox="0 0 224.88 225" height="225" version="1.0"><defs><clipPath id="a"><path d="M 109 58 L 172.632812 58 L 172.632812 127 L 109 127 Z M 109 58"/></clipPath><clipPath id="b"><path d="M 90 97 L 157 97 L 157 162.554688 L 90 162.554688 Z M 90 97"/></clipPath><clipPath id="c"><path d="M 96 128 L 137 128 L 137 162.554688 L 96 162.554688 Z M 96 128"/></clipPath><clipPath id="d"><path d="M 81 16.382812 L 90 16.382812 L 90 26 L 81 26 Z M 81 16.382812"/></clipPath></defs><path fill="#F9ED32" d="M 115.308594 36.539062 C 115.828125 36.539062 116.339844 36.488281 116.847656 36.386719 C 117.355469 36.285156 117.851562 36.136719 118.328125 35.9375 C 118.808594 35.738281 119.261719 35.492188 119.695312 35.203125 C 120.125 34.914062 120.523438 34.585938 120.890625 34.21875 C 121.257812 33.851562 121.585938 33.449219 121.875 33.019531 C 122.160156 32.585938 122.40625 32.128906 122.601562 31.648438 C 122.800781 31.167969 122.953125 30.671875 123.054688 30.160156 C 123.15625 29.648438 123.207031 29.132812 123.207031 28.613281 C 123.207031 28.09375 123.15625 27.578125 123.054688 27.066406 C 122.953125 26.554688 122.804688 26.058594 122.605469 25.578125 C 122.410156 25.097656 122.167969 24.640625 121.878906 24.207031 C 121.589844 23.773438 121.265625 23.375 120.898438 23.003906 C 120.53125 22.636719 120.132812 22.308594 119.703125 22.019531 C 119.273438 21.730469 118.816406 21.484375 118.339844 21.285156 C 117.859375 21.085938 117.367188 20.933594 116.859375 20.832031 C 116.351562 20.730469 115.835938 20.679688 115.316406 20.675781 C 114.800781 20.675781 114.285156 20.726562 113.777344 20.828125 C 113.269531 20.929688 112.773438 21.078125 112.296875 21.277344 C 111.816406 21.476562 111.363281 21.71875 110.929688 22.007812 C 110.5 22.296875 110.097656 22.625 109.730469 22.992188 C 109.363281 23.359375 109.035156 23.757812 108.75 24.191406 C 108.460938 24.625 108.214844 25.078125 108.015625 25.5625 C 107.816406 26.042969 107.667969 26.535156 107.5625 27.046875 C 107.460938 27.558594 107.410156 28.074219 107.410156 28.59375 C 107.410156 29.113281 107.460938 29.628906 107.5625 30.140625 C 107.664062 30.652344 107.8125 31.148438 108.011719 31.632812 C 108.210938 32.113281 108.453125 32.570312 108.742188 33.003906 C 109.027344 33.4375 109.355469 33.839844 109.722656 34.207031 C 110.089844 34.574219 110.488281 34.90625 110.917969 35.195312 C 111.351562 35.484375 111.804688 35.730469 112.285156 35.929688 C 112.761719 36.128906 113.257812 36.28125 113.765625 36.382812 C 114.273438 36.488281 114.789062 36.539062 115.308594 36.539062 Z M 115.308594 36.539062" fill-opacity=".776" fill-rule="evenodd"/><path fill="#662D91" d="M 153.566406 42.65625 C 155.714844 45.152344 157.488281 47.894531 158.890625 50.878906 C 160.292969 53.863281 161.273438 56.980469 161.832031 60.230469 C 163.429688 69.632812 160.988281 78.339844 162.703125 84.1875 C 163.101562 85.5 163.640625 86.753906 164.3125 87.949219 C 163.511719 88.417969 162.6875 88.835938 161.839844 89.210938 C 160.988281 89.582031 160.121094 89.90625 159.234375 90.179688 C 158.351562 90.453125 157.453125 90.675781 156.539062 90.84375 C 155.628906 91.011719 154.710938 91.128906 153.785156 91.191406 C 152.863281 91.257812 151.9375 91.265625 151.011719 91.222656 C 150.085938 91.179688 149.164062 91.085938 148.25 90.9375 C 147.335938 90.785156 146.433594 90.585938 145.539062 90.332031 C 144.648438 90.078125 143.773438 89.777344 142.917969 89.421875 C 142.058594 89.066406 141.226562 88.664062 140.414062 88.214844 C 139.605469 87.765625 138.820312 87.269531 138.066406 86.730469 C 137.3125 86.1875 136.589844 85.605469 135.902344 84.984375 C 135.214844 84.359375 134.566406 83.699219 133.953125 83 C 133.339844 82.300781 132.769531 81.570312 132.242188 80.804688 C 131.710938 80.042969 131.230469 79.25 130.789062 78.429688 C 130.351562 77.609375 129.960938 76.765625 129.621094 75.902344 C 129.277344 75.035156 128.988281 74.15625 128.746094 73.257812 C 128.503906 72.359375 128.316406 71.449219 128.179688 70.527344 C 128.042969 69.609375 127.957031 68.683594 127.925781 67.753906 C 127.894531 66.820312 127.917969 65.894531 127.992188 64.964844 C 128.066406 64.039062 128.195312 63.117188 128.375 62.207031 C 128.554688 61.292969 128.785156 60.394531 129.070312 59.507812 C 129.351562 58.621094 129.6875 57.753906 130.066406 56.90625 C 130.449219 56.058594 130.878906 55.234375 131.355469 54.4375 C 131.832031 53.636719 132.351562 52.871094 132.914062 52.132812 C 133.480469 51.394531 134.082031 50.6875 134.726562 50.019531 C 135.371094 49.351562 136.054688 48.722656 136.769531 48.132812 C 137.484375 47.542969 138.234375 46.996094 139.011719 46.492188 C 139.792969 45.988281 140.597656 45.527344 141.429688 45.117188 C 142.261719 44.707031 143.113281 44.34375 143.984375 44.03125 C 144.859375 43.71875 145.746094 43.457031 146.648438 43.246094 C 147.550781 43.035156 148.460938 42.875 149.382812 42.769531 C 150.304688 42.664062 151.226562 42.613281 152.152344 42.613281 C 152.609375 42.613281 153.089844 42.628906 153.566406 42.65625 Z M 153.566406 42.65625" fill-opacity=".776" fill-rule="evenodd"/><g clip-path="url(#a)"><path fill="#92278F" d="M 162.300781 64.367188 C 162.808594 72.15625 161.242188 79.207031 162.703125 84.210938 C 165.199219 92.75 176.269531 100.488281 171.097656 104.882812 C 169.460938 106.203125 166.644531 106.289062 164.992188 107.582031 C 162.363281 109.640625 164.160156 111.871094 164.394531 113.476562 C 164.503906 114.242188 163.816406 115.464844 161.542969 116.957031 C 163.257812 118.230469 163.101562 119.308594 162.488281 120.300781 C 161.652344 120.875 160.789062 121.414062 159.90625 121.910156 C 159.019531 122.410156 158.113281 122.867188 157.1875 123.28125 C 156.261719 123.699219 155.316406 124.070312 154.359375 124.402344 C 153.398438 124.730469 152.425781 125.015625 151.4375 125.257812 C 150.453125 125.5 149.457031 125.695312 148.453125 125.847656 C 147.449219 126 146.441406 126.105469 145.429688 126.164062 C 144.417969 126.226562 143.402344 126.238281 142.386719 126.207031 C 141.375 126.175781 140.363281 126.097656 139.355469 125.972656 C 138.347656 125.851562 137.347656 125.679688 136.355469 125.464844 C 135.363281 125.25 134.382812 124.992188 133.414062 124.6875 C 132.445312 124.382812 131.492188 124.039062 130.554688 123.648438 C 129.617188 123.257812 128.699219 122.824219 127.800781 122.351562 C 126.902344 121.878906 126.027344 121.367188 125.175781 120.8125 C 124.324219 120.257812 123.496094 119.667969 122.695312 119.039062 C 121.898438 118.414062 121.128906 117.75 120.390625 117.050781 C 119.648438 116.355469 118.941406 115.625 118.269531 114.863281 C 117.59375 114.101562 116.957031 113.308594 116.355469 112.488281 C 115.75 111.667969 115.1875 110.824219 114.660156 109.953125 C 114.132812 109.082031 113.648438 108.1875 113.203125 107.273438 C 112.753906 106.355469 112.351562 105.421875 111.988281 104.472656 C 111.628906 103.519531 111.308594 102.550781 111.035156 101.570312 C 110.757812 100.589844 110.527344 99.597656 110.34375 98.597656 C 110.15625 97.59375 110.015625 96.585938 109.921875 95.574219 C 109.828125 94.558594 109.777344 93.539062 109.773438 92.523438 C 109.769531 91.503906 109.8125 90.484375 109.902344 89.46875 C 109.988281 88.453125 110.121094 87.445312 110.300781 86.441406 C 110.480469 85.441406 110.703125 84.445312 110.972656 83.464844 C 111.242188 82.480469 111.554688 81.511719 111.910156 80.558594 C 112.265625 79.601562 112.664062 78.667969 113.101562 77.75 C 113.542969 76.832031 114.023438 75.933594 114.542969 75.058594 C 115.0625 74.183594 115.621094 73.335938 116.21875 72.511719 C 116.816406 71.6875 117.449219 70.890625 118.117188 70.125 C 118.789062 69.359375 119.488281 68.625 120.222656 67.921875 C 120.960938 67.21875 121.722656 66.550781 122.519531 65.917969 C 123.3125 65.28125 124.136719 64.6875 124.984375 64.128906 C 125.832031 63.570312 126.707031 63.050781 127.601562 62.570312 C 128.496094 62.089844 129.410156 61.652344 130.347656 61.257812 C 131.28125 60.859375 132.230469 60.507812 133.199219 60.195312 C 134.164062 59.886719 135.144531 59.621094 136.136719 59.398438 C 137.125 59.175781 138.125 59 139.128906 58.871094 C 140.136719 58.742188 141.148438 58.65625 142.160156 58.617188 C 143.175781 58.578125 144.1875 58.585938 145.203125 58.636719 C 146.214844 58.691406 147.226562 58.789062 148.230469 58.933594 C 149.234375 59.078125 150.230469 59.269531 151.21875 59.503906 C 152.207031 59.738281 153.179688 60.019531 154.144531 60.34375 C 155.105469 60.667969 156.050781 61.03125 156.980469 61.441406 C 157.910156 61.851562 158.820312 62.300781 159.707031 62.792969 C 160.597656 63.285156 161.460938 63.816406 162.300781 64.386719 Z M 162.300781 64.367188" fill-opacity=".776" fill-rule="evenodd"/></g><g clip-path="url(#b)"><path fill="#007FC6" d="M 155.09375 139.09375 C 142.300781 144.320312 125.175781 126.78125 122.871094 162.554688 C 114.554688 157.070312 105.742188 152.566406 96.429688 149.042969 C 96.046875 148.476562 95.683594 147.898438 95.335938 147.308594 C 94.988281 146.71875 94.660156 146.121094 94.347656 145.511719 C 94.039062 144.898438 93.746094 144.28125 93.476562 143.652344 C 93.203125 143.023438 92.953125 142.386719 92.71875 141.742188 C 92.488281 141.101562 92.277344 140.449219 92.085938 139.792969 C 91.894531 139.132812 91.722656 138.472656 91.570312 137.804688 C 91.421875 137.136719 91.292969 136.460938 91.183594 135.785156 C 91.074219 135.109375 90.988281 134.429688 90.921875 133.75 C 90.855469 133.066406 90.8125 132.382812 90.789062 131.699219 C 90.765625 131.015625 90.761719 130.332031 90.78125 129.644531 C 90.800781 128.960938 90.839844 128.277344 90.902344 127.59375 C 90.964844 126.914062 91.046875 126.234375 91.152344 125.554688 C 91.253906 124.878906 91.378906 124.207031 91.527344 123.535156 C 91.671875 122.867188 91.839844 122.203125 92.027344 121.546875 C 92.214844 120.886719 92.421875 120.234375 92.648438 119.589844 C 92.875 118.941406 93.125 118.304688 93.390625 117.675781 C 93.660156 117.046875 93.945312 116.425781 94.253906 115.8125 C 94.558594 115.199219 94.882812 114.597656 95.226562 114.007812 C 95.570312 113.414062 95.933594 112.835938 96.3125 112.265625 C 96.691406 111.695312 97.089844 111.140625 97.503906 110.597656 C 97.917969 110.050781 98.351562 109.523438 98.796875 109.003906 C 99.246094 108.488281 99.710938 107.984375 100.1875 107.496094 C 100.667969 107.011719 101.160156 106.539062 101.667969 106.082031 C 102.175781 105.625 102.699219 105.183594 103.234375 104.757812 C 103.769531 104.335938 104.320312 103.929688 104.878906 103.539062 C 105.441406 103.148438 106.015625 102.777344 106.597656 102.425781 C 107.183594 102.070312 107.777344 101.734375 108.382812 101.417969 C 108.988281 101.101562 109.601562 100.804688 110.226562 100.527344 C 110.847656 100.25 111.480469 99.992188 112.121094 99.753906 C 112.757812 99.515625 113.40625 99.300781 114.058594 99.101562 C 114.710938 98.902344 115.371094 98.726562 116.035156 98.570312 C 116.699219 98.414062 117.367188 98.28125 118.039062 98.164062 C 118.714844 98.050781 119.386719 97.957031 120.066406 97.886719 C 120.746094 97.816406 121.425781 97.765625 122.105469 97.734375 C 122.789062 97.707031 123.46875 97.699219 124.152344 97.714844 C 124.835938 97.726562 125.515625 97.761719 126.195312 97.820312 C 126.875 97.875 127.550781 97.953125 128.226562 98.054688 C 128.902344 98.152344 129.574219 98.273438 130.242188 98.414062 C 130.90625 98.554688 131.570312 98.71875 132.226562 98.898438 C 132.886719 99.082031 133.535156 99.285156 134.179688 99.511719 C 134.824219 99.734375 135.460938 99.976562 136.09375 100.242188 C 136.722656 100.503906 137.34375 100.789062 137.953125 101.089844 C 138.566406 101.394531 139.167969 101.714844 139.761719 102.054688 C 140.351562 102.398438 140.933594 102.753906 141.503906 103.132812 C 142.070312 103.507812 142.628906 103.902344 143.175781 104.316406 C 143.71875 104.726562 144.25 105.15625 144.769531 105.601562 C 145.285156 106.046875 145.789062 106.507812 146.28125 106.984375 C 146.769531 107.464844 147.242188 107.957031 147.703125 108.460938 C 148.160156 108.96875 148.605469 109.488281 149.03125 110.023438 C 149.457031 110.558594 149.867188 111.105469 150.257812 111.667969 C 150.652344 112.226562 151.027344 112.800781 151.382812 113.382812 C 151.738281 113.96875 152.078125 114.5625 152.398438 115.167969 C 152.71875 115.773438 153.015625 116.386719 153.296875 117.011719 C 153.582031 117.632812 153.84375 118.265625 154.085938 118.90625 C 154.324219 119.546875 154.546875 120.195312 154.75 120.847656 C 154.953125 121.503906 155.132812 122.164062 155.292969 122.828125 C 155.453125 123.496094 155.59375 124.164062 155.710938 124.839844 C 155.832031 125.515625 155.929688 126.191406 156.003906 126.871094 C 156.082031 127.554688 156.136719 128.234375 156.171875 128.921875 C 156.207031 129.605469 156.21875 130.289062 156.210938 130.972656 C 156.203125 131.660156 156.171875 132.34375 156.121094 133.027344 C 156.070312 133.707031 156 134.390625 155.90625 135.066406 C 155.8125 135.746094 155.695312 136.421875 155.5625 137.09375 C 155.425781 137.765625 155.269531 138.429688 155.09375 139.09375 Z M 155.09375 139.09375" fill-opacity=".776" fill-rule="evenodd"/></g><g clip-path="url(#c)"><path fill="#01A6E6" d="M 136.3125 139.277344 C 129.554688 139.558594 124.101562 143.46875 122.871094 162.554688 C 114.601562 157.101562 105.839844 152.617188 96.589844 149.097656 C 96.617188 147.9375 96.738281 146.789062 96.953125 145.648438 C 97.167969 144.507812 97.472656 143.394531 97.867188 142.304688 C 98.265625 141.214844 98.746094 140.164062 99.316406 139.152344 C 99.882812 138.140625 100.527344 137.183594 101.25 136.277344 C 101.976562 135.375 102.765625 134.535156 103.628906 133.757812 C 104.488281 132.984375 105.40625 132.285156 106.378906 131.660156 C 107.355469 131.035156 108.371094 130.496094 109.433594 130.039062 C 110.496094 129.582031 111.589844 129.214844 112.710938 128.9375 C 113.832031 128.660156 114.96875 128.476562 116.121094 128.386719 C 117.273438 128.292969 118.425781 128.296875 119.578125 128.398438 C 120.726562 128.496094 121.863281 128.6875 122.984375 128.972656 C 124.105469 129.257812 125.195312 129.632812 126.253906 130.09375 C 127.3125 130.558594 128.328125 131.105469 129.296875 131.738281 C 130.269531 132.367188 131.179688 133.074219 132.035156 133.855469 C 132.890625 134.632812 133.675781 135.480469 134.394531 136.390625 C 135.113281 137.296875 135.75 138.261719 136.3125 139.277344 Z M 136.3125 139.277344" fill-opacity=".776" fill-rule="evenodd"/></g><path fill="#2063B2" d="M 167.222656 106.488281 C 166.417969 106.71875 165.675781 107.078125 164.992188 107.558594 C 162.363281 109.621094 164.160156 111.847656 164.394531 113.457031 C 164.503906 114.21875 163.816406 115.445312 161.542969 116.9375 C 164.171875 118.886719 162.402344 120.375 161.34375 121.808594 C 156.425781 125.371094 163.269531 133.089844 155.152344 139.070312 C 146.960938 142.460938 137 136.484375 130.273438 141.070312 C 130.167969 140.453125 130.078125 139.835938 130.011719 139.210938 C 129.941406 138.589844 129.894531 137.964844 129.863281 137.339844 C 129.832031 136.714844 129.824219 136.085938 129.832031 135.460938 C 129.839844 134.835938 129.871094 134.210938 129.917969 133.585938 C 129.964844 132.960938 130.03125 132.335938 130.117188 131.71875 C 130.203125 131.097656 130.308594 130.480469 130.433594 129.867188 C 130.554688 129.25 130.699219 128.640625 130.859375 128.035156 C 131.023438 127.433594 131.203125 126.832031 131.402344 126.238281 C 131.601562 125.644531 131.816406 125.058594 132.050781 124.476562 C 132.289062 123.898438 132.539062 123.324219 132.808594 122.761719 C 133.082031 122.195312 133.367188 121.640625 133.671875 121.09375 C 133.976562 120.546875 134.296875 120.011719 134.636719 119.484375 C 134.972656 118.957031 135.328125 118.441406 135.699219 117.9375 C 136.066406 117.433594 136.453125 116.941406 136.851562 116.460938 C 137.253906 115.980469 137.667969 115.511719 138.097656 115.054688 C 138.527344 114.601562 138.96875 114.160156 139.425781 113.734375 C 139.878906 113.304688 140.347656 112.894531 140.832031 112.496094 C 141.3125 112.097656 141.804688 111.714844 142.3125 111.347656 C 142.816406 110.980469 143.332031 110.628906 143.859375 110.292969 C 144.386719 109.960938 144.925781 109.640625 145.472656 109.339844 C 146.019531 109.039062 146.574219 108.753906 147.136719 108.484375 C 147.703125 108.21875 148.273438 107.96875 148.855469 107.738281 C 149.433594 107.507812 150.019531 107.292969 150.613281 107.097656 C 151.207031 106.902344 151.804688 106.726562 152.40625 106.570312 C 153.011719 106.414062 153.621094 106.273438 154.230469 106.15625 C 154.84375 106.035156 155.460938 105.933594 156.078125 105.851562 C 156.695312 105.769531 157.316406 105.710938 157.9375 105.667969 C 158.5625 105.625 159.183594 105.601562 159.808594 105.597656 C 160.433594 105.59375 161.054688 105.609375 161.679688 105.644531 C 162.300781 105.675781 162.921875 105.730469 163.542969 105.804688 C 164.160156 105.878906 164.777344 105.972656 165.390625 106.082031 C 166.003906 106.195312 166.617188 106.328125 167.222656 106.476562 Z M 167.222656 106.488281" fill-opacity=".776" fill-rule="evenodd"/><path fill="#12BCBC" d="M 72.089844 106.867188 C 72.855469 106.867188 73.617188 106.792969 74.371094 106.644531 C 75.125 106.492188 75.855469 106.269531 76.566406 105.976562 C 77.277344 105.679688 77.949219 105.320312 78.589844 104.890625 C 79.230469 104.460938 79.820312 103.976562 80.363281 103.429688 C 80.90625 102.882812 81.390625 102.289062 81.820312 101.648438 C 82.246094 101.007812 82.605469 100.332031 82.902344 99.617188 C 83.195312 98.90625 83.417969 98.171875 83.566406 97.414062 C 83.714844 96.65625 83.792969 95.894531 83.792969 95.121094 C 83.792969 94.351562 83.71875 93.585938 83.566406 92.832031 C 83.417969 92.074219 83.195312 91.339844 82.902344 90.625 C 82.609375 89.914062 82.246094 89.238281 81.820312 88.597656 C 81.394531 87.953125 80.910156 87.359375 80.367188 86.816406 C 79.824219 86.269531 79.230469 85.785156 78.59375 85.355469 C 77.953125 84.925781 77.28125 84.5625 76.570312 84.269531 C 75.859375 83.972656 75.128906 83.75 74.375 83.601562 C 73.621094 83.449219 72.863281 83.375 72.09375 83.375 C 71.324219 83.375 70.5625 83.449219 69.8125 83.601562 C 69.058594 83.75 68.324219 83.972656 67.617188 84.269531 C 66.90625 84.566406 66.230469 84.925781 65.59375 85.355469 C 64.953125 85.785156 64.363281 86.273438 63.820312 86.816406 C 63.277344 87.363281 62.792969 87.957031 62.367188 88.597656 C 61.9375 89.238281 61.578125 89.917969 61.285156 90.628906 C 60.992188 91.34375 60.769531 92.078125 60.621094 92.835938 C 60.46875 93.589844 60.394531 94.355469 60.394531 95.125 C 60.398438 95.898438 60.472656 96.660156 60.625 97.414062 C 60.777344 98.171875 61 98.90625 61.292969 99.617188 C 61.585938 100.328125 61.949219 101.003906 62.375 101.644531 C 62.800781 102.285156 63.285156 102.878906 63.828125 103.421875 C 64.371094 103.96875 64.960938 104.453125 65.597656 104.882812 C 66.234375 105.308594 66.910156 105.671875 67.617188 105.96875 C 68.328125 106.261719 69.058594 106.488281 69.808594 106.640625 C 70.5625 106.789062 71.320312 106.867188 72.089844 106.867188 Z M 72.089844 106.867188" fill-opacity=".776" fill-rule="evenodd"/><path fill="#00B9F1" d="M 96.589844 123.21875 C 97.289062 123.222656 97.984375 123.15625 98.671875 123.019531 C 99.359375 122.882812 100.027344 122.683594 100.675781 122.414062 C 101.324219 122.148438 101.941406 121.820312 102.523438 121.429688 C 103.109375 121.039062 103.648438 120.597656 104.144531 120.097656 C 104.640625 119.601562 105.085938 119.0625 105.476562 118.476562 C 105.867188 117.894531 106.199219 117.277344 106.46875 116.625 C 106.738281 115.976562 106.941406 115.308594 107.078125 114.617188 C 107.21875 113.925781 107.285156 113.230469 107.289062 112.527344 C 107.289062 111.820312 107.222656 111.125 107.085938 110.433594 C 106.953125 109.742188 106.75 109.074219 106.484375 108.421875 C 106.214844 107.769531 105.886719 107.152344 105.5 106.566406 C 105.109375 105.980469 104.667969 105.4375 104.175781 104.941406 C 103.679688 104.441406 103.140625 103.996094 102.558594 103.605469 C 101.976562 103.214844 101.359375 102.882812 100.714844 102.613281 C 100.066406 102.339844 99.398438 102.136719 98.710938 102 C 98.023438 101.863281 97.328125 101.792969 96.628906 101.792969 C 95.929688 101.789062 95.234375 101.859375 94.546875 101.996094 C 93.859375 102.132812 93.191406 102.335938 92.542969 102.605469 C 91.894531 102.871094 91.28125 103.203125 90.695312 103.59375 C 90.113281 103.984375 89.574219 104.429688 89.078125 104.925781 C 88.582031 105.421875 88.140625 105.964844 87.75 106.550781 C 87.359375 107.136719 87.03125 107.753906 86.761719 108.402344 C 86.496094 109.054688 86.292969 109.722656 86.15625 110.414062 C 86.019531 111.105469 85.949219 111.800781 85.949219 112.503906 C 85.949219 113.207031 86.019531 113.902344 86.15625 114.589844 C 86.292969 115.277344 86.496094 115.945312 86.765625 116.59375 C 87.03125 117.242188 87.359375 117.859375 87.746094 118.445312 C 88.136719 119.027344 88.574219 119.566406 89.070312 120.066406 C 89.5625 120.5625 90.101562 121.007812 90.679688 121.398438 C 91.261719 121.789062 91.875 122.121094 92.519531 122.390625 C 93.164062 122.660156 93.828125 122.867188 94.511719 123.003906 C 95.199219 123.144531 95.890625 123.214844 96.589844 123.21875 Z M 96.589844 123.21875" fill-opacity=".776" fill-rule="evenodd"/><path fill="#8DC63F" d="M 70.40625 78.28125 C 70.945312 78.28125 71.476562 78.230469 72.003906 78.125 C 72.535156 78.019531 73.046875 77.863281 73.542969 77.65625 C 74.039062 77.449219 74.511719 77.195312 74.960938 76.894531 C 75.40625 76.59375 75.820312 76.253906 76.203125 75.871094 C 76.582031 75.488281 76.921875 75.074219 77.222656 74.625 C 77.519531 74.175781 77.773438 73.699219 77.980469 73.203125 C 78.183594 72.703125 78.339844 72.1875 78.445312 71.65625 C 78.550781 71.125 78.605469 70.589844 78.605469 70.050781 C 78.601562 69.511719 78.550781 68.976562 78.445312 68.445312 C 78.339844 67.914062 78.183594 67.398438 77.980469 66.898438 C 77.773438 66.402344 77.519531 65.925781 77.222656 65.476562 C 76.921875 65.027344 76.582031 64.609375 76.199219 64.230469 C 75.820312 63.847656 75.40625 63.503906 74.957031 63.207031 C 74.511719 62.90625 74.039062 62.652344 73.539062 62.445312 C 73.042969 62.238281 72.53125 62.082031 72.003906 61.976562 C 71.472656 61.871094 70.941406 61.820312 70.402344 61.820312 C 69.863281 61.820312 69.332031 61.871094 68.804688 61.976562 C 68.277344 62.082031 67.761719 62.242188 67.265625 62.449219 C 66.769531 62.65625 66.296875 62.910156 65.847656 63.207031 C 65.402344 63.507812 64.988281 63.851562 64.605469 64.234375 C 64.226562 64.617188 63.886719 65.03125 63.589844 65.480469 C 63.289062 65.929688 63.039062 66.40625 62.832031 66.90625 C 62.625 67.40625 62.46875 67.917969 62.367188 68.449219 C 62.261719 68.980469 62.210938 69.515625 62.210938 70.054688 C 62.210938 70.597656 62.265625 71.128906 62.371094 71.660156 C 62.476562 72.191406 62.632812 72.703125 62.835938 73.203125 C 63.042969 73.703125 63.296875 74.175781 63.597656 74.625 C 63.894531 75.074219 64.234375 75.488281 64.613281 75.871094 C 64.996094 76.253906 65.410156 76.59375 65.855469 76.894531 C 66.304688 77.191406 66.777344 77.445312 67.273438 77.652344 C 67.769531 77.859375 68.28125 78.015625 68.808594 78.121094 C 69.335938 78.226562 69.867188 78.28125 70.40625 78.28125 Z M 70.40625 78.28125" fill-opacity=".776" fill-rule="evenodd"/><path fill="#FFD900" d="M 66.316406 49.597656 C 66.316406 50.066406 66.273438 50.53125 66.183594 50.988281 C 66.089844 51.449219 65.957031 51.894531 65.777344 52.328125 C 65.597656 52.757812 65.378906 53.171875 65.121094 53.558594 C 64.863281 53.949219 64.570312 54.308594 64.238281 54.640625 C 63.910156 54.96875 63.550781 55.265625 63.164062 55.527344 C 62.777344 55.785156 62.367188 56.003906 61.9375 56.183594 C 61.507812 56.363281 61.0625 56.5 60.605469 56.589844 C 60.148438 56.679688 59.6875 56.726562 59.21875 56.726562 C 58.753906 56.726562 58.292969 56.679688 57.835938 56.589844 C 57.378906 56.5 56.933594 56.363281 56.503906 56.183594 C 56.074219 56.003906 55.664062 55.785156 55.277344 55.527344 C 54.890625 55.265625 54.53125 54.96875 54.203125 54.640625 C 53.871094 54.308594 53.578125 53.949219 53.320312 53.558594 C 53.058594 53.171875 52.839844 52.757812 52.664062 52.328125 C 52.484375 51.894531 52.351562 51.449219 52.257812 50.988281 C 52.167969 50.53125 52.121094 50.066406 52.121094 49.597656 C 52.121094 49.132812 52.167969 48.667969 52.257812 48.207031 C 52.351562 47.75 52.484375 47.304688 52.664062 46.871094 C 52.839844 46.4375 53.058594 46.027344 53.320312 45.640625 C 53.578125 45.25 53.871094 44.890625 54.203125 44.558594 C 54.53125 44.230469 54.890625 43.933594 55.277344 43.671875 C 55.664062 43.414062 56.074219 43.195312 56.503906 43.015625 C 56.933594 42.835938 57.378906 42.699219 57.835938 42.609375 C 58.292969 42.515625 58.753906 42.472656 59.21875 42.472656 C 59.6875 42.472656 60.148438 42.515625 60.605469 42.609375 C 61.0625 42.699219 61.507812 42.835938 61.9375 43.015625 C 62.367188 43.195312 62.777344 43.414062 63.164062 43.671875 C 63.550781 43.933594 63.910156 44.230469 64.238281 44.558594 C 64.570312 44.890625 64.863281 45.25 65.121094 45.640625 C 65.378906 46.027344 65.597656 46.4375 65.777344 46.871094 C 65.957031 47.304688 66.089844 47.75 66.183594 48.207031 C 66.273438 48.667969 66.316406 49.132812 66.316406 49.597656 Z M 66.316406 49.597656" fill-opacity=".776"/><path fill="#009444" d="M 74.214844 36.539062 C 74.652344 36.539062 75.082031 36.496094 75.507812 36.414062 C 75.9375 36.328125 76.351562 36.203125 76.753906 36.035156 C 77.15625 35.867188 77.539062 35.664062 77.898438 35.421875 C 78.261719 35.179688 78.597656 34.902344 78.902344 34.59375 C 79.210938 34.285156 79.488281 33.949219 79.730469 33.585938 C 79.972656 33.222656 80.175781 32.839844 80.34375 32.4375 C 80.507812 32.03125 80.632812 31.617188 80.71875 31.1875 C 80.804688 30.757812 80.847656 30.324219 80.847656 29.890625 C 80.847656 29.453125 80.804688 29.019531 80.722656 28.589844 C 80.636719 28.160156 80.511719 27.746094 80.34375 27.34375 C 80.179688 26.9375 79.972656 26.554688 79.734375 26.191406 C 79.492188 25.828125 79.214844 25.492188 78.910156 25.183594 C 78.601562 24.871094 78.265625 24.597656 77.90625 24.355469 C 77.542969 24.109375 77.160156 23.90625 76.757812 23.738281 C 76.355469 23.570312 75.941406 23.445312 75.515625 23.359375 C 75.089844 23.273438 74.65625 23.230469 74.222656 23.230469 C 73.789062 23.230469 73.355469 23.273438 72.929688 23.359375 C 72.503906 23.445312 72.089844 23.570312 71.6875 23.738281 C 71.285156 23.90625 70.902344 24.109375 70.539062 24.351562 C 70.179688 24.59375 69.84375 24.871094 69.535156 25.179688 C 69.226562 25.488281 68.953125 25.824219 68.710938 26.1875 C 68.46875 26.550781 68.265625 26.933594 68.097656 27.339844 C 67.933594 27.742188 67.808594 28.160156 67.722656 28.585938 C 67.636719 29.015625 67.59375 29.449219 67.59375 29.886719 C 67.59375 30.320312 67.636719 30.753906 67.722656 31.183594 C 67.808594 31.609375 67.933594 32.027344 68.101562 32.429688 C 68.269531 32.832031 68.472656 33.214844 68.714844 33.578125 C 68.957031 33.941406 69.230469 34.277344 69.535156 34.585938 C 69.84375 34.894531 70.179688 35.171875 70.539062 35.414062 C 70.902344 35.65625 71.28125 35.863281 71.683594 36.027344 C 72.085938 36.195312 72.5 36.324219 72.925781 36.410156 C 73.351562 36.496094 73.78125 36.539062 74.214844 36.539062 Z M 74.214844 36.539062" fill-opacity=".776" fill-rule="evenodd"/><path fill="#56BA48" d="M 76.464844 53.125 C 76.753906 53.125 77.039062 53.097656 77.320312 53.039062 C 77.601562 52.984375 77.875 52.902344 78.140625 52.789062 C 78.40625 52.679688 78.660156 52.542969 78.898438 52.382812 C 79.136719 52.222656 79.359375 52.042969 79.5625 51.835938 C 79.765625 51.632812 79.945312 51.410156 80.105469 51.171875 C 80.265625 50.929688 80.398438 50.679688 80.507812 50.410156 C 80.621094 50.144531 80.703125 49.871094 80.757812 49.585938 C 80.816406 49.304688 80.84375 49.019531 80.84375 48.730469 C 80.84375 48.441406 80.816406 48.15625 80.757812 47.871094 C 80.703125 47.589844 80.621094 47.3125 80.507812 47.046875 C 80.398438 46.78125 80.265625 46.527344 80.105469 46.289062 C 79.945312 46.046875 79.765625 45.824219 79.5625 45.621094 C 79.359375 45.417969 79.136719 45.234375 78.898438 45.074219 C 78.660156 44.914062 78.40625 44.777344 78.140625 44.667969 C 77.875 44.558594 77.601562 44.476562 77.320312 44.417969 C 77.039062 44.363281 76.753906 44.332031 76.464844 44.332031 C 76.179688 44.332031 75.894531 44.363281 75.613281 44.417969 C 75.328125 44.476562 75.054688 44.558594 74.789062 44.667969 C 74.523438 44.777344 74.273438 44.914062 74.035156 45.074219 C 73.792969 45.234375 73.574219 45.417969 73.371094 45.621094 C 73.167969 45.824219 72.984375 46.046875 72.824219 46.289062 C 72.667969 46.527344 72.53125 46.78125 72.421875 47.046875 C 72.3125 47.3125 72.230469 47.589844 72.171875 47.871094 C 72.117188 48.15625 72.089844 48.441406 72.089844 48.730469 C 72.089844 49.019531 72.117188 49.304688 72.175781 49.585938 C 72.230469 49.867188 72.3125 50.144531 72.425781 50.410156 C 72.535156 50.675781 72.667969 50.929688 72.828125 51.167969 C 72.988281 51.410156 73.171875 51.628906 73.375 51.835938 C 73.578125 52.039062 73.796875 52.222656 74.035156 52.382812 C 74.273438 52.542969 74.527344 52.675781 74.792969 52.789062 C 75.058594 52.898438 75.332031 52.980469 75.613281 53.039062 C 75.894531 53.09375 76.179688 53.125 76.464844 53.125 Z M 76.464844 53.125" fill-opacity=".776" fill-rule="evenodd"/><g clip-path="url(#d)"><path fill="#FBAD17" d="M 85.59375 25.175781 C 85.882812 25.175781 86.167969 25.148438 86.449219 25.089844 C 86.730469 25.035156 87.003906 24.949219 87.269531 24.839844 C 87.535156 24.730469 87.789062 24.59375 88.027344 24.433594 C 88.265625 24.273438 88.488281 24.089844 88.691406 23.886719 C 88.894531 23.683594 89.074219 23.460938 89.234375 23.222656 C 89.394531 22.980469 89.527344 22.726562 89.640625 22.460938 C 89.75 22.195312 89.832031 21.917969 89.886719 21.636719 C 89.945312 21.355469 89.972656 21.066406 89.972656 20.777344 C 89.972656 20.492188 89.945312 20.203125 89.886719 19.921875 C 89.832031 19.636719 89.75 19.363281 89.640625 19.097656 C 89.527344 18.832031 89.394531 18.578125 89.234375 18.335938 C 89.074219 18.097656 88.894531 17.875 88.691406 17.671875 C 88.488281 17.46875 88.265625 17.285156 88.027344 17.125 C 87.789062 16.964844 87.535156 16.828125 87.269531 16.71875 C 87.003906 16.609375 86.730469 16.523438 86.449219 16.46875 C 86.167969 16.410156 85.882812 16.382812 85.59375 16.382812 C 85.308594 16.382812 85.023438 16.410156 84.742188 16.46875 C 84.460938 16.523438 84.183594 16.609375 83.917969 16.71875 C 83.652344 16.828125 83.402344 16.964844 83.164062 17.125 C 82.925781 17.285156 82.703125 17.46875 82.5 17.671875 C 82.296875 17.875 82.113281 18.097656 81.957031 18.335938 C 81.796875 18.578125 81.660156 18.832031 81.550781 19.097656 C 81.441406 19.363281 81.359375 19.636719 81.300781 19.921875 C 81.246094 20.203125 81.21875 20.492188 81.21875 20.777344 C 81.21875 21.066406 81.246094 21.351562 81.304688 21.636719 C 81.359375 21.917969 81.445312 22.191406 81.554688 22.460938 C 81.664062 22.726562 81.796875 22.980469 81.957031 23.21875 C 82.117188 23.457031 82.300781 23.679688 82.503906 23.882812 C 82.707031 24.089844 82.925781 24.269531 83.164062 24.429688 C 83.402344 24.589844 83.65625 24.726562 83.921875 24.835938 C 84.1875 24.949219 84.460938 25.03125 84.742188 25.089844 C 85.023438 25.144531 85.308594 25.175781 85.59375 25.175781 Z M 85.59375 25.175781" fill-opacity=".776" fill-rule="evenodd"/></g><path fill="#F15C22" d="M 58.707031 34.972656 C 59.148438 34.972656 59.570312 34.886719 59.972656 34.714844 C 60.378906 34.542969 60.734375 34.300781 61.046875 33.988281 C 61.355469 33.675781 61.59375 33.316406 61.757812 32.910156 C 61.925781 32.5 62.007812 32.078125 62.007812 31.636719 C 62.003906 31.195312 61.921875 30.769531 61.75 30.363281 C 61.582031 29.957031 61.34375 29.597656 61.03125 29.289062 C 60.71875 28.976562 60.363281 28.738281 59.957031 28.570312 C 59.550781 28.402344 59.128906 28.316406 58.6875 28.320312 C 58.25 28.320312 57.828125 28.40625 57.421875 28.574219 C 57.015625 28.742188 56.660156 28.984375 56.347656 29.296875 C 56.039062 29.605469 55.800781 29.964844 55.632812 30.375 C 55.464844 30.78125 55.378906 31.207031 55.378906 31.644531 C 55.382812 32.089844 55.46875 32.511719 55.636719 32.921875 C 55.804688 33.328125 56.046875 33.6875 56.359375 34 C 56.671875 34.3125 57.03125 34.554688 57.4375 34.722656 C 57.84375 34.890625 58.269531 34.972656 58.707031 34.972656 Z M 58.707031 34.972656" fill-opacity=".776" fill-rule="evenodd"/><path fill="#FBAD17" d="M 137.46875 68.917969 C 137.46875 69.828125 137.421875 70.734375 137.335938 71.640625 C 137.246094 72.546875 137.113281 73.449219 136.933594 74.339844 C 136.757812 75.234375 136.539062 76.117188 136.273438 76.988281 C 136.011719 77.859375 135.707031 78.714844 135.359375 79.554688 C 135.011719 80.398438 134.625 81.21875 134.199219 82.023438 C 133.769531 82.824219 133.304688 83.605469 132.800781 84.363281 C 132.296875 85.121094 131.757812 85.851562 131.183594 86.554688 C 130.609375 87.257812 130 87.933594 129.359375 88.574219 C 128.71875 89.21875 128.046875 89.832031 127.34375 90.410156 C 126.644531 90.984375 125.917969 91.527344 125.164062 92.035156 C 124.410156 92.539062 123.632812 93.007812 122.832031 93.4375 C 122.03125 93.867188 121.214844 94.253906 120.375 94.601562 C 119.539062 94.953125 118.683594 95.257812 117.816406 95.523438 C 116.949219 95.785156 116.070312 96.007812 115.183594 96.183594 C 114.292969 96.363281 113.398438 96.496094 112.496094 96.585938 C 111.59375 96.675781 110.6875 96.71875 109.78125 96.71875 C 108.875 96.71875 107.96875 96.675781 107.066406 96.585938 C 106.164062 96.496094 105.269531 96.363281 104.378906 96.183594 C 103.488281 96.007812 102.613281 95.785156 101.742188 95.523438 C 100.875 95.257812 100.023438 94.953125 99.183594 94.601562 C 98.347656 94.253906 97.527344 93.867188 96.730469 93.4375 C 95.929688 93.007812 95.152344 92.539062 94.398438 92.035156 C 93.644531 91.527344 92.917969 90.984375 92.214844 90.410156 C 91.515625 89.832031 90.84375 89.21875 90.203125 88.574219 C 89.5625 87.933594 88.953125 87.257812 88.378906 86.554688 C 87.804688 85.851562 87.265625 85.121094 86.761719 84.363281 C 86.257812 83.605469 85.789062 82.824219 85.363281 82.023438 C 84.9375 81.21875 84.546875 80.398438 84.203125 79.554688 C 83.855469 78.714844 83.550781 77.859375 83.285156 76.988281 C 83.023438 76.117188 82.804688 75.234375 82.625 74.339844 C 82.449219 73.449219 82.316406 72.546875 82.226562 71.640625 C 82.136719 70.734375 82.09375 69.828125 82.09375 68.917969 C 82.09375 68.003906 82.136719 67.097656 82.226562 66.191406 C 82.316406 65.285156 82.449219 64.386719 82.625 63.492188 C 82.804688 62.597656 83.023438 61.71875 83.285156 60.84375 C 83.550781 59.972656 83.855469 59.117188 84.203125 58.277344 C 84.546875 57.433594 84.9375 56.613281 85.363281 55.808594 C 85.789062 55.007812 86.257812 54.226562 86.761719 53.46875 C 87.265625 52.710938 87.804688 51.980469 88.378906 51.277344 C 88.953125 50.574219 89.5625 49.902344 90.203125 49.257812 C 90.84375 48.613281 91.515625 48.003906 92.214844 47.425781 C 92.917969 46.847656 93.644531 46.304688 94.398438 45.800781 C 95.152344 45.292969 95.929688 44.824219 96.730469 44.398438 C 97.527344 43.96875 98.347656 43.578125 99.183594 43.230469 C 100.023438 42.882812 100.875 42.574219 101.742188 42.3125 C 102.613281 42.046875 103.488281 41.824219 104.378906 41.648438 C 105.269531 41.46875 106.164062 41.335938 107.066406 41.246094 C 107.96875 41.15625 108.875 41.113281 109.78125 41.113281 C 110.6875 41.113281 111.59375 41.15625 112.496094 41.246094 C 113.398438 41.335938 114.292969 41.46875 115.183594 41.648438 C 116.070312 41.824219 116.949219 42.046875 117.816406 42.3125 C 118.683594 42.574219 119.539062 42.882812 120.375 43.230469 C 121.214844 43.578125 122.03125 43.96875 122.832031 44.398438 C 123.632812 44.824219 124.410156 45.292969 125.164062 45.800781 C 125.917969 46.304688 126.644531 46.847656 127.34375 47.425781 C 128.046875 48.003906 128.71875 48.613281 129.359375 49.257812 C 130 49.902344 130.609375 50.574219 131.183594 51.277344 C 131.757812 51.980469 132.296875 52.710938 132.800781 53.46875 C 133.304688 54.226562 133.769531 55.007812 134.199219 55.808594 C 134.625 56.613281 135.011719 57.433594 135.359375 58.277344 C 135.707031 59.117188 136.011719 59.972656 136.273438 60.84375 C 136.539062 61.71875 136.757812 62.597656 136.933594 63.492188 C 137.113281 64.386719 137.246094 65.285156 137.335938 66.191406 C 137.421875 67.097656 137.46875 68.003906 137.46875 68.917969 Z M 137.46875 68.917969" fill-opacity=".776"/><path fill="#EC008B" d="M 125.074219 26.832031 C 138.34375 29.582031 149.460938 36.253906 156.015625 45.855469 C 155.902344 46.667969 155.738281 47.472656 155.527344 48.265625 C 155.316406 49.058594 155.054688 49.835938 154.746094 50.597656 C 154.441406 51.359375 154.085938 52.097656 153.6875 52.816406 C 153.289062 53.53125 152.847656 54.222656 152.363281 54.882812 C 151.878906 55.546875 151.355469 56.175781 150.792969 56.773438 C 150.230469 57.371094 149.632812 57.929688 149 58.453125 C 148.371094 58.976562 147.710938 59.457031 147.019531 59.894531 C 146.328125 60.335938 145.613281 60.730469 144.871094 61.082031 C 144.132812 61.433594 143.375 61.738281 142.597656 61.996094 C 141.820312 62.253906 141.03125 62.460938 140.226562 62.617188 C 139.425781 62.777344 138.613281 62.882812 137.800781 62.941406 C 136.984375 63 136.167969 63.003906 135.347656 62.960938 C 134.53125 62.917969 133.722656 62.824219 132.914062 62.675781 C 132.109375 62.53125 131.316406 62.335938 130.535156 62.09375 C 129.753906 61.847656 128.992188 61.558594 128.246094 61.21875 C 127.5 60.878906 126.78125 60.496094 126.082031 60.066406 C 125.382812 59.636719 124.714844 59.167969 124.074219 58.652344 C 123.4375 58.140625 122.832031 57.59375 122.257812 57.003906 C 121.6875 56.417969 121.152344 55.796875 120.660156 55.140625 C 120.164062 54.488281 119.710938 53.804688 119.300781 53.09375 C 118.890625 52.382812 118.523438 51.648438 118.203125 50.894531 C 117.882812 50.136719 117.613281 49.363281 117.386719 48.574219 C 117.164062 47.785156 116.988281 46.984375 116.859375 46.171875 C 116.734375 45.359375 116.660156 44.542969 116.636719 43.722656 C 116.609375 42.902344 116.636719 42.082031 116.710938 41.265625 C 116.789062 40.445312 116.914062 39.636719 117.089844 38.832031 C 117.269531 38.03125 117.492188 37.242188 117.765625 36.46875 C 118.039062 35.695312 118.359375 34.941406 118.726562 34.207031 C 119.09375 33.472656 119.507812 32.761719 119.960938 32.078125 C 120.414062 31.398438 120.910156 30.746094 121.445312 30.121094 C 121.980469 29.5 122.550781 28.914062 123.160156 28.363281 C 123.765625 27.816406 124.40625 27.304688 125.074219 26.832031 Z M 125.074219 26.832031" fill-opacity=".776" fill-rule="evenodd"/><path fill="#56BA48" d="M 100.460938 56.730469 C 101.003906 56.730469 101.542969 56.707031 102.085938 56.652344 C 102.625 56.597656 103.160156 56.519531 103.695312 56.414062 C 104.226562 56.304688 104.753906 56.171875 105.273438 56.015625 C 105.792969 55.855469 106.304688 55.671875 106.804688 55.464844 C 107.308594 55.257812 107.796875 55.023438 108.277344 54.765625 C 108.757812 54.507812 109.222656 54.230469 109.675781 53.925781 C 110.125 53.625 110.5625 53.300781 110.980469 52.953125 C 111.402344 52.605469 111.804688 52.242188 112.1875 51.855469 C 112.570312 51.46875 112.9375 51.066406 113.28125 50.644531 C 113.625 50.222656 113.949219 49.785156 114.25 49.332031 C 114.550781 48.878906 114.832031 48.410156 115.085938 47.929688 C 115.34375 47.449219 115.574219 46.957031 115.78125 46.453125 C 115.992188 45.949219 116.171875 45.4375 116.332031 44.914062 C 116.488281 44.394531 116.621094 43.863281 116.726562 43.328125 C 116.832031 42.792969 116.914062 42.253906 116.964844 41.714844 C 117.019531 41.171875 117.046875 40.625 117.046875 40.082031 C 117.046875 39.535156 117.019531 38.992188 116.964844 38.449219 C 116.914062 37.90625 116.832031 37.367188 116.726562 36.832031 C 116.621094 36.296875 116.488281 35.769531 116.332031 35.246094 C 116.175781 34.726562 115.992188 34.210938 115.785156 33.707031 C 115.574219 33.203125 115.34375 32.710938 115.089844 32.230469 C 114.832031 31.75 114.554688 31.285156 114.25 30.828125 C 113.949219 30.375 113.625 29.9375 113.28125 29.515625 C 112.9375 29.097656 112.574219 28.691406 112.191406 28.308594 C 111.804688 27.921875 111.402344 27.554688 110.984375 27.210938 C 110.5625 26.863281 110.128906 26.539062 109.675781 26.234375 C 109.226562 25.933594 108.761719 25.652344 108.28125 25.394531 C 107.800781 25.140625 107.3125 24.90625 106.808594 24.695312 C 106.308594 24.488281 105.796875 24.304688 105.277344 24.148438 C 104.757812 23.988281 104.230469 23.855469 103.699219 23.75 C 103.167969 23.644531 102.628906 23.5625 102.089844 23.511719 C 101.550781 23.457031 101.007812 23.429688 100.464844 23.429688 C 99.921875 23.429688 99.378906 23.457031 98.839844 23.507812 C 98.296875 23.5625 97.761719 23.644531 97.230469 23.75 C 96.695312 23.855469 96.171875 23.988281 95.652344 24.144531 C 95.132812 24.304688 94.621094 24.488281 94.117188 24.695312 C 93.617188 24.90625 93.125 25.136719 92.648438 25.394531 C 92.167969 25.652344 91.703125 25.933594 91.253906 26.234375 C 90.800781 26.539062 90.363281 26.863281 89.945312 27.207031 C 89.523438 27.554688 89.125 27.921875 88.738281 28.304688 C 88.355469 28.691406 87.992188 29.09375 87.644531 29.515625 C 87.300781 29.9375 86.980469 30.375 86.675781 30.828125 C 86.375 31.28125 86.097656 31.75 85.839844 32.230469 C 85.585938 32.710938 85.351562 33.203125 85.144531 33.707031 C 84.9375 34.210938 84.753906 34.726562 84.597656 35.246094 C 84.4375 35.769531 84.308594 36.296875 84.199219 36.832031 C 84.09375 37.367188 84.015625 37.90625 83.960938 38.449219 C 83.910156 38.992188 83.882812 39.535156 83.882812 40.082031 C 83.882812 40.625 83.910156 41.167969 83.964844 41.710938 C 84.019531 42.253906 84.097656 42.792969 84.207031 43.328125 C 84.3125 43.859375 84.445312 44.390625 84.601562 44.910156 C 84.761719 45.429688 84.945312 45.945312 85.152344 46.445312 C 85.359375 46.949219 85.59375 47.441406 85.847656 47.921875 C 86.105469 48.402344 86.382812 48.871094 86.683594 49.324219 C 86.988281 49.777344 87.308594 50.214844 87.652344 50.632812 C 88 51.054688 88.363281 51.457031 88.746094 51.84375 C 89.128906 52.230469 89.53125 52.59375 89.949219 52.941406 C 90.371094 53.285156 90.804688 53.613281 91.257812 53.914062 C 91.707031 54.21875 92.171875 54.496094 92.652344 54.753906 C 93.128906 55.011719 93.617188 55.246094 94.121094 55.453125 C 94.621094 55.664062 95.132812 55.847656 95.648438 56.007812 C 96.167969 56.164062 96.695312 56.300781 97.226562 56.40625 C 97.757812 56.511719 98.296875 56.59375 98.835938 56.648438 C 99.375 56.703125 99.917969 56.730469 100.460938 56.730469 Z M 100.460938 56.730469" fill-opacity=".776" fill-rule="evenodd"/><g><g><g><path d="M 21.28125 -12.984375 C 22.707031 -12.523438 23.820312 -11.765625 24.625 -10.703125 C 25.4375 -9.648438 25.84375 -8.351562 25.84375 -6.8125 C 25.84375 -4.625 24.992188 -2.941406 23.296875 -1.765625 C 21.597656 -0.585938 19.117188 0 15.859375 0 L 2.953125 0 L 2.953125 -24.953125 L 15.15625 -24.953125 C 18.195312 -24.953125 20.53125 -24.367188 22.15625 -23.203125 C 23.789062 -22.046875 24.609375 -20.46875 24.609375 -18.46875 C 24.609375 -17.257812 24.316406 -16.175781 23.734375 -15.21875 C 23.148438 -14.269531 22.332031 -13.523438 21.28125 -12.984375 Z M 8.703125 -20.609375 L 8.703125 -14.71875 L 14.4375 -14.71875 C 15.863281 -14.71875 16.945312 -14.96875 17.6875 -15.46875 C 18.425781 -15.96875 18.796875 -16.707031 18.796875 -17.6875 C 18.796875 -18.65625 18.425781 -19.382812 17.6875 -19.875 C 16.945312 -20.363281 15.863281 -20.609375 14.4375 -20.609375 Z M 15.4375 -4.34375 C 16.957031 -4.34375 18.101562 -4.59375 18.875 -5.09375 C 19.644531 -5.59375 20.03125 -6.367188 20.03125 -7.421875 C 20.03125 -9.484375 18.5 -10.515625 15.4375 -10.515625 L 8.703125 -10.515625 L 8.703125 -4.34375 Z M 15.4375 -4.34375" transform="translate(36.132 196.472)"/></g></g></g><g><g><g><path d="M 21.359375 -9.515625 C 21.359375 -9.441406 21.320312 -8.941406 21.25 -8.015625 L 6.734375 -8.015625 C 6.992188 -6.828125 7.613281 -5.890625 8.59375 -5.203125 C 9.570312 -4.515625 10.785156 -4.171875 12.234375 -4.171875 C 13.234375 -4.171875 14.117188 -4.316406 14.890625 -4.609375 C 15.660156 -4.910156 16.378906 -5.382812 17.046875 -6.03125 L 20 -2.8125 C 18.195312 -0.75 15.5625 0.28125 12.09375 0.28125 C 9.925781 0.28125 8.007812 -0.140625 6.34375 -0.984375 C 4.675781 -1.828125 3.390625 -2.992188 2.484375 -4.484375 C 1.585938 -5.984375 1.140625 -7.6875 1.140625 -9.59375 C 1.140625 -11.46875 1.582031 -13.160156 2.46875 -14.671875 C 3.363281 -16.179688 4.585938 -17.359375 6.140625 -18.203125 C 7.703125 -19.046875 9.445312 -19.46875 11.375 -19.46875 C 13.25 -19.46875 14.945312 -19.0625 16.46875 -18.25 C 17.988281 -17.445312 19.179688 -16.289062 20.046875 -14.78125 C 20.921875 -13.269531 21.359375 -11.515625 21.359375 -9.515625 Z M 11.40625 -15.265625 C 10.144531 -15.265625 9.085938 -14.90625 8.234375 -14.1875 C 7.378906 -13.476562 6.859375 -12.503906 6.671875 -11.265625 L 16.109375 -11.265625 C 15.921875 -12.472656 15.398438 -13.441406 14.546875 -14.171875 C 13.691406 -14.898438 12.644531 -15.265625 11.40625 -15.265625 Z M 11.40625 -15.265625" transform="translate(65.22 196.472)"/></g></g></g><g><g><g><path d="M 1.859375 -12.265625 L 11.9375 -12.265625 L 11.9375 -7.8125 L 1.859375 -7.8125 Z M 1.859375 -12.265625" transform="translate(89.532 196.472)"/></g></g></g><g><g><g><path d="M 12.046875 -9.8125 L 8.703125 -6.3125 L 8.703125 0 L 2.953125 0 L 2.953125 -24.953125 L 8.703125 -24.953125 L 8.703125 -13.296875 L 19.75 -24.953125 L 26.171875 -24.953125 L 15.828125 -13.828125 L 26.78125 0 L 20.03125 0 Z M 12.046875 -9.8125" transform="translate(105.11 196.472)"/></g></g></g><g><g><g><path d="M 2.5625 -19.1875 L 8.125 -19.1875 L 8.125 0 L 2.5625 0 Z M 5.34375 -21.859375 C 4.320312 -21.859375 3.488281 -22.15625 2.84375 -22.75 C 2.207031 -23.34375 1.890625 -24.078125 1.890625 -24.953125 C 1.890625 -25.835938 2.207031 -26.578125 2.84375 -27.171875 C 3.488281 -27.765625 4.320312 -28.0625 5.34375 -28.0625 C 6.375 -28.0625 7.207031 -27.773438 7.84375 -27.203125 C 8.488281 -26.628906 8.8125 -25.914062 8.8125 -25.0625 C 8.8125 -24.132812 8.488281 -23.367188 7.84375 -22.765625 C 7.207031 -22.160156 6.375 -21.859375 5.34375 -21.859375 Z M 5.34375 -21.859375" transform="translate(133.307 196.472)"/></g></g></g><g><g><g><path d="M 14.234375 -19.46875 C 16.609375 -19.46875 18.523438 -18.753906 19.984375 -17.328125 C 21.441406 -15.898438 22.171875 -13.785156 22.171875 -10.984375 L 22.171875 0 L 16.609375 0 L 16.609375 -10.125 C 16.609375 -11.644531 16.273438 -12.78125 15.609375 -13.53125 C 14.953125 -14.28125 13.992188 -14.65625 12.734375 -14.65625 C 11.328125 -14.65625 10.207031 -14.21875 9.375 -13.34375 C 8.539062 -12.476562 8.125 -11.191406 8.125 -9.484375 L 8.125 0 L 2.5625 0 L 2.5625 -19.1875 L 7.875 -19.1875 L 7.875 -16.9375 C 8.613281 -17.75 9.53125 -18.375 10.625 -18.8125 C 11.71875 -19.25 12.921875 -19.46875 14.234375 -19.46875 Z M 14.234375 -19.46875" transform="translate(145.855 196.472)"/></g></g></g><g><g><g><path d="M 22.109375 -26.453125 L 22.109375 0 L 16.796875 0 L 16.796875 -2.203125 C 15.410156 -0.546875 13.410156 0.28125 10.796875 0.28125 C 8.992188 0.28125 7.359375 -0.117188 5.890625 -0.921875 C 4.429688 -1.734375 3.285156 -2.882812 2.453125 -4.375 C 1.628906 -5.875 1.21875 -7.613281 1.21875 -9.59375 C 1.21875 -11.5625 1.628906 -13.296875 2.453125 -14.796875 C 3.285156 -16.296875 4.429688 -17.445312 5.890625 -18.25 C 7.359375 -19.0625 8.992188 -19.46875 10.796875 -19.46875 C 13.242188 -19.46875 15.160156 -18.695312 16.546875 -17.15625 L 16.546875 -26.453125 Z M 11.765625 -4.28125 C 13.171875 -4.28125 14.335938 -4.757812 15.265625 -5.71875 C 16.191406 -6.6875 16.65625 -7.976562 16.65625 -9.59375 C 16.65625 -11.207031 16.191406 -12.492188 15.265625 -13.453125 C 14.335938 -14.421875 13.171875 -14.90625 11.765625 -14.90625 C 10.335938 -14.90625 9.160156 -14.421875 8.234375 -13.453125 C 7.304688 -12.492188 6.84375 -11.207031 6.84375 -9.59375 C 6.84375 -7.976562 7.304688 -6.6875 8.234375 -5.71875 C 9.160156 -4.757812 10.335938 -4.28125 11.765625 -4.28125 Z M 11.765625 -4.28125" transform="translate(172.306 196.472)"/></g></g></g><g><g><g><path d="M 5 0 L 3.71875 -1.84375 L 2.3125 -1.84375 L 2.3125 0 L 0.78125 0 L 0.78125 -6.609375 L 3.65625 -6.609375 C 4.238281 -6.609375 4.742188 -6.507812 5.171875 -6.3125 C 5.609375 -6.125 5.941406 -5.847656 6.171875 -5.484375 C 6.398438 -5.128906 6.515625 -4.707031 6.515625 -4.21875 C 6.515625 -3.726562 6.394531 -3.300781 6.15625 -2.9375 C 5.925781 -2.582031 5.59375 -2.3125 5.15625 -2.125 L 6.640625 0 Z M 4.96875 -4.21875 C 4.96875 -4.59375 4.847656 -4.878906 4.609375 -5.078125 C 4.367188 -5.273438 4.019531 -5.375 3.5625 -5.375 L 2.3125 -5.375 L 2.3125 -3.0625 L 3.5625 -3.0625 C 4.019531 -3.0625 4.367188 -3.160156 4.609375 -3.359375 C 4.847656 -3.566406 4.96875 -3.851562 4.96875 -4.21875 Z M 4.96875 -4.21875" transform="translate(88.429 213.015)"/></g></g></g><g><g><g><path d="M 5.90625 -1.234375 L 5.90625 0 L 0.78125 0 L 0.78125 -6.609375 L 5.78125 -6.609375 L 5.78125 -5.390625 L 2.3125 -5.390625 L 2.3125 -3.953125 L 5.375 -3.953125 L 5.375 -2.765625 L 2.3125 -2.765625 L 2.3125 -1.234375 Z M 5.90625 -1.234375" transform="translate(97.33 213.015)"/></g></g></g><g><g><g><path d="M 0.484375 -3.25 L 3.171875 -3.25 L 3.171875 -2.0625 L 0.484375 -2.0625 Z M 0.484375 -3.25" transform="translate(105.625 213.015)"/></g></g></g><g><g><g><path d="M 6.8125 0 L 6.796875 -3.96875 L 4.84375 -0.703125 L 4.15625 -0.703125 L 2.21875 -3.890625 L 2.21875 0 L 0.78125 0 L 0.78125 -6.609375 L 2.046875 -6.609375 L 4.53125 -2.5 L 6.96875 -6.609375 L 8.21875 -6.609375 L 8.25 0 Z M 6.8125 0" transform="translate(111.225 213.015)"/></g></g></g><g><g><g><path d="M 0.78125 -6.609375 L 2.3125 -6.609375 L 2.3125 0 L 0.78125 0 Z M 0.78125 -6.609375" transform="translate(122.207 213.015)"/></g></g></g><g><g><g><path d="M 6.859375 -6.609375 L 6.859375 0 L 5.59375 0 L 2.296875 -4.015625 L 2.296875 0 L 0.78125 0 L 0.78125 -6.609375 L 2.046875 -6.609375 L 5.34375 -2.59375 L 5.34375 -6.609375 Z M 6.859375 -6.609375" transform="translate(127.259 213.015)"/></g></g></g><g><g><g><path d="M 0.78125 -6.609375 L 3.796875 -6.609375 C 4.515625 -6.609375 5.144531 -6.472656 5.6875 -6.203125 C 6.238281 -5.929688 6.664062 -5.546875 6.96875 -5.046875 C 7.28125 -4.546875 7.4375 -3.96875 7.4375 -3.3125 C 7.4375 -2.644531 7.28125 -2.0625 6.96875 -1.5625 C 6.664062 -1.070312 6.238281 -0.6875 5.6875 -0.40625 C 5.144531 -0.132812 4.515625 0 3.796875 0 L 0.78125 0 Z M 3.71875 -1.25 C 4.375 -1.25 4.898438 -1.429688 5.296875 -1.796875 C 5.691406 -2.171875 5.890625 -2.675781 5.890625 -3.3125 C 5.890625 -3.9375 5.691406 -4.429688 5.296875 -4.796875 C 4.898438 -5.171875 4.375 -5.359375 3.71875 -5.359375 L 2.3125 -5.359375 L 2.3125 -1.25 Z M 3.71875 -1.25" transform="translate(136.85 213.015)"/></g></g></g></svg>